<svg id="Group_45" data-name="Group 45" xmlns="http://www.w3.org/2000/svg" width="1233.809" height="926.001" viewBox="0 0 1233.809 926.001">
  <path id="Path_133" data-name="Path 133" d="M985.266,776.523a297.338,297.338,0,0,1-13.891,82.193c-.188.618-.4,1.226-.6,1.843H918.941c.054-.554.111-1.172.165-1.843,3.456-39.733-16.288-278.674-40.114-320.029C881.08,542.041,989.285,650.274,985.266,776.523Z" transform="translate(175.843 63.565)" fill="#f0f0f0"/>
  <path id="Path_134" data-name="Path 134" d="M958.868,806.337c-.433.618-.884,1.235-1.346,1.843H918.634c.295-.526.636-1.143,1.032-1.843,6.424-11.594,25.438-46.258,43.087-82.193,18.96-38.618,36.369-78.7,34.9-93.206C998.111,634.208,1011.236,733.951,958.868,806.337Z" transform="translate(198.351 115.943)" fill="#f0f0f0"/>
  <path id="Path_734" data-name="Path 734" d="M1184.733,907.843H206.17v-753.3h978.563Z" transform="translate(-206.17 -154.543)" fill="#fff"/>
  <path id="Path_735" data-name="Path 735" d="M1184.733,792.852H206.17V154.543h978.563ZM220.628,780.6h949.646V166.794H220.628Z" transform="translate(-206.17 -39.552)" fill="#e5e5e5"/>
  <path id="Path_736" data-name="Path 736" d="M399.1,559.208H325.009a7.576,7.576,0,0,1-7.568-7.567V449.509a7.576,7.576,0,0,1,7.568-7.567H399.1a7.576,7.576,0,0,1,7.567,7.567V551.641a7.576,7.576,0,0,1-7.567,7.567Z" transform="translate(-142.993 8.636)" fill="#e6e6e6"/>
  <path id="Path_737" data-name="Path 737" d="M485.277,594.291H411.188a7.576,7.576,0,0,1-7.568-7.567v-199a7.576,7.576,0,0,1,7.568-7.567h74.089a7.576,7.576,0,0,1,7.567,7.567v199A7.576,7.576,0,0,1,485.277,594.291Z" transform="translate(-94.062 -26.447)" fill="#e6e6e6"/>
  <path id="Path_738" data-name="Path 738" d="M571.457,559.208H497.368a7.576,7.576,0,0,1-7.567-7.567V449.509a7.576,7.576,0,0,1,7.568-7.567h74.089a7.576,7.576,0,0,1,7.568,7.567V551.641A7.576,7.576,0,0,1,571.457,559.208Z" transform="translate(-45.131 8.636)" fill="#e6e6e6"/>
  <path id="Path_739" data-name="Path 739" d="M657.636,608.14H583.548a7.41,7.41,0,0,1-7.568-7.224V362.987a7.41,7.41,0,0,1,7.568-7.224h74.089a7.41,7.41,0,0,1,7.568,7.224V600.916a7.41,7.41,0,0,1-7.568,7.224Z" transform="translate(3.8 -40.296)" fill="#e6e6e6"/>
  <path id="Path_740" data-name="Path 740" d="M743.816,633.066H669.727a7.576,7.576,0,0,1-7.568-7.567V319.427a7.576,7.576,0,0,1,7.568-7.567h74.089a7.576,7.576,0,0,1,7.568,7.567V625.5A7.576,7.576,0,0,1,743.816,633.066Z" transform="translate(52.731 -65.222)" fill="#f2f2f2"/>
  <circle id="Ellipse_68" data-name="Ellipse 68" cx="15.296" cy="15.296" r="15.296" transform="translate(203.765 389.396)" fill="#3f3d56"/>
  <circle id="Ellipse_69" data-name="Ellipse 69" cx="15.296" cy="15.296" r="15.296" transform="translate(338.875 289.975)" fill="#3f3d56"/>
  <circle id="Ellipse_70" data-name="Ellipse 70" cx="15.296" cy="15.296" r="15.296" transform="translate(473.986 389.396)" fill="#3f3d56"/>
  <circle id="Ellipse_71" data-name="Ellipse 71" cx="15.296" cy="15.296" r="15.296" transform="translate(609.096 241.539)" fill="#3f3d56"/>
  <circle id="Ellipse_72" data-name="Ellipse 72" cx="15.296" cy="15.296" r="15.296" transform="translate(744.207 185.456)" fill="#3f3d56"/>
  <path id="Path_741" data-name="Path 741" d="M410.824,335.675,275.39,234.236,141.809,334.29l-3.057-4.081L275.39,227.864,410.178,328.823,544.121,182.245l.538-.218,135.11-54.438,1.906,4.73L547.1,186.539Z" transform="translate(78.78 72.442)" fill="#3f3d56"/>
  <path id="Path_742" data-name="Path 742" d="M617.3,606.862H594.282l-10.949-88.768H617.3Z" transform="translate(331.204 294.162)" fill="#ffb6b6"/>
  <path id="Path_743" data-name="Path 743" d="M841.784,754.287l-74.207,0v-.939a28.885,28.885,0,0,1,28.881-28.883h0l45.323,0Z" transform="translate(112.584 169.045)" fill="#2f2e41"/>
  <path id="Path_744" data-name="Path 744" d="M758.705,489.607,771.77,697.78l43.868,146.532,33.987,2.461L832.559,668.19l7.483-118.6s35.474-26.443,15.86-58.274Z" transform="translate(107.547 35.699)" fill="#2f2e41"/>
  <path id="Path_745" data-name="Path 745" d="M626.875,606.862H603.86l-10.948-88.768h33.966Z" transform="translate(336.642 294.162)" fill="#ffb6b6"/>
  <path id="Path_746" data-name="Path 746" d="M851.363,754.287l-74.207,0v-.939a28.884,28.884,0,0,1,28.881-28.883h0l45.323,0Z" transform="translate(118.023 169.045)" fill="#2f2e41"/>
  <path id="Path_747" data-name="Path 747" d="M768.284,489.607,781.349,697.78l43.868,146.532,33.987,2.461L842.138,668.19l7.483-118.6s35.474-26.443,15.86-58.274Z" transform="translate(112.986 35.699)" fill="#2f2e41"/>
  <path id="Path_748" data-name="Path 748" d="M845.6,610.958c-39.191,0-85.318-23.951-87.991-25.358l-.743-.391L846.81,355.74,891.357,334.7a21.315,21.315,0,0,1,30.289,21.634L903.968,514.917l-18.453,82.137-.2.192C875.135,607.309,860.891,610.958,845.6,610.958Z" transform="translate(106.501 -53.416)" fill="#3f3d56"/>
  <path id="Path_749" data-name="Path 749" d="M725.012,414.34a18.877,18.877,0,0,1,27.578,8.79l66.981-3.659L802,449.576l-60.912-1.141a18.979,18.979,0,0,1-16.072-34.095Z" transform="translate(83.351 -8.703)" fill="#ffb6b6"/>
  <path id="Path_750" data-name="Path 750" d="M830.4,495.243l-67.125-1.713.866-44.4,31.741-10.1L847.95,366a33.59,33.59,0,1,1,53.563,40.5Z" transform="translate(110.144 -42.482)" fill="#3f3d56"/>
  <circle id="Ellipse_73" data-name="Ellipse 73" cx="44.602" cy="44.602" r="44.602" transform="translate(934.81 183.62)" fill="#ffb6b6"/>
  <path id="Path_751" data-name="Path 751" d="M796.526,287.135a30.487,30.487,0,0,1,16.707-8.766c6.195-1.333,12.99-1.746,17.946-5.632,5.632-4.487,8.109-13.009,15.017-14.9a16.463,16.463,0,0,1,8.992.713,58.193,58.193,0,0,1,28.158,18.772,24.107,24.107,0,0,0,6.476,6.476,46.913,46.913,0,0,1,4.468,2.178,12.163,12.163,0,0,1,3.642,4.749,46.16,46.16,0,0,1,3.229,32.419c-1.727,6.4-4.843,12.333-6.683,18.772S884.13,360.6,882.14,357.557s-4.543-5.876-5.631-9.386c-2.124-6.9-.206-13.854-5.608-18.65-3.341-2.966-9.386-4.956-11.657-1.126-.9,1.483-.845,3.36-1.614,4.9-1.521,3-5.913,3.6-8.823,1.877a13.533,13.533,0,0,1-5.519-8.185c-4.374-14.792-11.826-24.1-27.651-17.777-5.894,2.365-12.84,3.961-18.509-.094C789.655,303.785,791.176,293.217,796.526,287.135Z" transform="translate(126.458 -96.081)" fill="#2f2e41"/>
  <path id="Path_752" data-name="Path 752" d="M760.579,648.632H686.49a7.576,7.576,0,0,1-7.568-7.567V334.992a7.576,7.576,0,0,1,7.568-7.567h74.089a7.576,7.576,0,0,1,7.568,7.567V641.065A7.576,7.576,0,0,1,760.579,648.632Z" transform="translate(62.248 -56.384)" fill="#3271f9"/>
  <path id="Path_753" data-name="Path 753" d="M723.815,431.1a18.877,18.877,0,0,1,27.578,8.79l66.981-3.659-17.575,30.1L739.887,465.2A18.979,18.979,0,0,1,723.815,431.1Z" transform="translate(82.671 0.815)" fill="#ffb6b6"/>
  <path id="Path_754" data-name="Path 754" d="M829.206,512.007l-67.125-1.713.866-44.4,31.741-10.1,52.064-73.023a33.59,33.59,0,1,1,53.563,40.5Z" transform="translate(109.464 -32.965)" fill="#3f3d56"/>
  <path id="Path_755" data-name="Path 755" d="M1251.648,746.548H536.439a1.877,1.877,0,1,1,0-3.754h715.209a1.877,1.877,0,1,1,0,3.754Z" transform="translate(-19.717 179.453)" fill="#cacaca"/>
</svg>
