<svg xmlns="http://www.w3.org/2000/svg" xmlns:xlink="http://www.w3.org/1999/xlink" width="1257.623" height="716.001" viewBox="0 0 1257.623 716.001">
  <defs>
    <linearGradient id="linear-gradient" x1="0.5" y1="1" x2="0.5" gradientUnits="objectBoundingBox">
      <stop offset="0" stop-color="gray" stop-opacity="0.251"/>
      <stop offset="0.54" stop-color="gray" stop-opacity="0.122"/>
      <stop offset="1" stop-color="gray" stop-opacity="0.102"/>
    </linearGradient>
  </defs>
  <g id="Group_49" data-name="Group 49" transform="translate(0 0)">
    <path id="Path_783" data-name="Path 783" d="M1285.622,594.294a198.493,198.493,0,0,1-28.714,103.2c0,38.058-17.743,72.555-46.523,97.7a159.1,159.1,0,0,1-23.174,16.831c-.33.209-.67.407-1.011.6-.616.363-1.231.726-1.858,1.1l-.583.341h0a180.956,180.956,0,0,1-89.133,22.888H266.739c-57.088,0-108.767-19.876-146.21-52S60.012,708.381,60.012,659.351A198.427,198.427,0,0,1,28,550.881c0-108.987,87.11-197.339,194.58-197.339,3.8,0,7.574.132,11.323.341C301.335,238.894,453.437,158.71,630.141,158.71c108.635,0,207.936,30.286,284,80.327a191.479,191.479,0,0,1,94.454-24.79c107.448,0,194.58,88.352,194.58,197.339a203.29,203.29,0,0,1-1.1,20.645,197.878,197.878,0,0,1,83.548,162.062Z" transform="translate(-28 -120.959)" fill="#3271f9" opacity="0.1"/>
    <ellipse id="Ellipse_76" data-name="Ellipse 76" cx="430.933" cy="11.543" rx="430.933" ry="11.543" transform="translate(23.086 512.569)" fill="#3271f9" opacity="0.1"/>
    <g id="Group_45" data-name="Group 45" transform="translate(156.103 202.561)" opacity="0.7">
      <rect id="Rectangle_58" data-name="Rectangle 58" width="137.415" height="75.853" transform="translate(0 236.354)" fill="#65617d"/>
      <rect id="Rectangle_59" data-name="Rectangle 59" width="41.774" height="8.795" transform="translate(48.37 249.546)" opacity="0.1"/>
      <rect id="Rectangle_60" data-name="Rectangle 60" width="31.331" height="6.596" transform="translate(53.592 250.645)" opacity="0.1"/>
      <rect id="Rectangle_61" data-name="Rectangle 61" width="137.415" height="75.853" transform="translate(139.614 236.354)" fill="#65617d"/>
      <rect id="Rectangle_62" data-name="Rectangle 62" width="41.774" height="8.795" transform="translate(187.984 249.546)" opacity="0.1"/>
      <rect id="Rectangle_63" data-name="Rectangle 63" width="31.331" height="6.596" transform="translate(193.205 250.645)" opacity="0.1"/>
      <rect id="Rectangle_64" data-name="Rectangle 64" width="137.415" height="75.853" transform="translate(0 158.302)" fill="#65617d"/>
      <rect id="Rectangle_65" data-name="Rectangle 65" width="41.774" height="8.795" transform="translate(48.37 171.494)" opacity="0.1"/>
      <rect id="Rectangle_66" data-name="Rectangle 66" width="31.331" height="6.596" transform="translate(53.592 172.593)" opacity="0.1"/>
      <rect id="Rectangle_67" data-name="Rectangle 67" width="137.415" height="75.853" transform="translate(139.614 158.302)" fill="#65617d"/>
      <rect id="Rectangle_68" data-name="Rectangle 68" width="41.774" height="8.795" transform="translate(187.984 171.494)" opacity="0.1"/>
      <rect id="Rectangle_69" data-name="Rectangle 69" width="31.331" height="6.596" transform="translate(193.205 172.593)" opacity="0.1"/>
      <rect id="Rectangle_70" data-name="Rectangle 70" width="137.415" height="75.853" transform="translate(0 79.151)" fill="#65617d"/>
      <rect id="Rectangle_71" data-name="Rectangle 71" width="41.774" height="8.795" transform="translate(48.37 92.343)" opacity="0.1"/>
      <rect id="Rectangle_72" data-name="Rectangle 72" width="31.331" height="6.596" transform="translate(53.592 93.442)" opacity="0.1"/>
      <rect id="Rectangle_73" data-name="Rectangle 73" width="137.415" height="75.853" transform="translate(139.614 79.151)" fill="#65617d"/>
      <rect id="Rectangle_74" data-name="Rectangle 74" width="41.774" height="8.795" transform="translate(187.984 92.343)" opacity="0.1"/>
      <rect id="Rectangle_75" data-name="Rectangle 75" width="31.331" height="6.596" transform="translate(193.205 93.442)" opacity="0.1"/>
      <rect id="Rectangle_76" data-name="Rectangle 76" width="137.415" height="75.853" transform="translate(139.614)" fill="#65617d"/>
      <rect id="Rectangle_77" data-name="Rectangle 77" width="41.774" height="8.795" transform="translate(187.984 13.192)" opacity="0.1"/>
      <rect id="Rectangle_78" data-name="Rectangle 78" width="31.331" height="6.596" transform="translate(193.205 14.291)" opacity="0.1"/>
    </g>
    <g id="Group_46" data-name="Group 46" transform="translate(435.331 201.461)" opacity="0.7">
      <rect id="Rectangle_79" data-name="Rectangle 79" width="137.415" height="75.853" transform="translate(0 236.354)" fill="#65617d"/>
      <rect id="Rectangle_80" data-name="Rectangle 80" width="41.774" height="8.795" transform="translate(48.37 249.546)" opacity="0.1"/>
      <rect id="Rectangle_81" data-name="Rectangle 81" width="31.331" height="6.596" transform="translate(53.592 250.645)" opacity="0.1"/>
      <rect id="Rectangle_82" data-name="Rectangle 82" width="137.415" height="75.853" transform="translate(139.614 236.354)" fill="#65617d"/>
      <rect id="Rectangle_83" data-name="Rectangle 83" width="41.774" height="8.795" transform="translate(187.984 249.546)" opacity="0.1"/>
      <rect id="Rectangle_84" data-name="Rectangle 84" width="31.331" height="6.596" transform="translate(193.205 250.645)" opacity="0.1"/>
      <rect id="Rectangle_85" data-name="Rectangle 85" width="137.415" height="75.853" transform="translate(0 158.302)" fill="#65617d"/>
      <rect id="Rectangle_86" data-name="Rectangle 86" width="41.774" height="8.795" transform="translate(48.37 171.494)" opacity="0.1"/>
      <rect id="Rectangle_87" data-name="Rectangle 87" width="31.331" height="6.596" transform="translate(53.592 172.593)" opacity="0.1"/>
      <rect id="Rectangle_88" data-name="Rectangle 88" width="137.415" height="75.853" transform="translate(139.614 158.302)" fill="#65617d"/>
      <rect id="Rectangle_89" data-name="Rectangle 89" width="41.774" height="8.795" transform="translate(187.984 171.494)" opacity="0.1"/>
      <rect id="Rectangle_90" data-name="Rectangle 90" width="31.331" height="6.596" transform="translate(193.205 172.593)" opacity="0.1"/>
      <rect id="Rectangle_91" data-name="Rectangle 91" width="137.415" height="75.853" transform="translate(0 79.151)" fill="#65617d"/>
      <rect id="Rectangle_92" data-name="Rectangle 92" width="41.774" height="8.795" transform="translate(48.37 92.343)" opacity="0.1"/>
      <rect id="Rectangle_93" data-name="Rectangle 93" width="31.331" height="6.596" transform="translate(53.592 93.442)" opacity="0.1"/>
      <rect id="Rectangle_94" data-name="Rectangle 94" width="137.415" height="75.853" transform="translate(139.614 79.151)" fill="#65617d"/>
      <rect id="Rectangle_95" data-name="Rectangle 95" width="41.774" height="8.795" transform="translate(187.984 92.343)" opacity="0.1"/>
      <rect id="Rectangle_96" data-name="Rectangle 96" width="31.331" height="6.596" transform="translate(193.205 93.442)" opacity="0.1"/>
      <rect id="Rectangle_97" data-name="Rectangle 97" width="137.415" height="75.853" transform="translate(139.614)" fill="#65617d"/>
      <rect id="Rectangle_98" data-name="Rectangle 98" width="41.774" height="8.795" transform="translate(187.984 13.192)" opacity="0.1"/>
      <rect id="Rectangle_99" data-name="Rectangle 99" width="31.331" height="6.596" transform="translate(193.205 14.291)" opacity="0.1"/>
    </g>
    <path id="Path_784" data-name="Path 784" d="M913.749,124.491s-92.552-5.585-81.668,59.275c0,0-2.2,11.466,8.223,16.666,0,0,.165-4.8,9.5-3.166a43.427,43.427,0,0,0,10.059.484,20.953,20.953,0,0,0,12.29-5.079h0s26.021-10.751,36.135-53.273c0,0,7.486-9.278,7.19-11.664l-15.621,6.673s5.343,11.268,1.1,20.634c0,0-.506-20.227-3.507-19.788-.6.1-8.113,3.9-8.113,3.9s9.179,19.623,2.254,33.892c0,0,2.627-24.185-5.123-32.474l-10.993,6.42s10.729,20.271,3.452,36.816c0,0,1.869-25.372-5.772-35.255l-9.96,7.772s10.081,19.986,3.936,33.705c0,0-.8-29.539-6.09-31.77,0,0-8.718,7.7-10.048,10.839,0,0,6.9,14.511,2.616,22.162,0,0-2.628-19.678-4.782-19.788,0,0-8.684,13.038-9.586,21.986,0,0,.374-13.3,7.486-23.229,0,0-8.4,1.44-13.3,6.893,0,0,1.352-9.223,15.445-10.026,0,0,7.179-9.894,9.092-10.5,0,0-14.005-1.165-22.5,2.594,0,0,7.475-8.7,25.076-4.738l9.839-8.036s-18.447-2.517-26.274.264c0,0,9-7.7,28.923-2.078l10.729-6.354s-15.731-3.386-25.1-2.2c0,0,9.894-5.332,28.241.451l7.7-3.441s-11.521-2.265-14.9-2.627-3.551-1.286-3.551-1.286a39.959,39.959,0,0,1,21.645,2.408S914.035,125.513,913.749,124.491Z" transform="translate(51.773 -124.37)" fill="#3271f9" opacity="0.1"/>
    <path id="Path_785" data-name="Path 785" d="M805.818,139.495s-41.774-2.528-36.882,26.79c0,0-.978,5.178,3.7,7.53,0,0,.077-2.2,4.3-1.44a19.249,19.249,0,0,0,4.54.22,9.422,9.422,0,0,0,5.552-2.3h0s11.763-4.848,16.336-24.064c0,0,3.375-4.2,3.243-5.277l-7.058,3.012s2.418,5.1.516,9.333c0,0-.231-9.146-1.583-8.926-.275,0-3.672,1.759-3.672,1.759s4.156,8.872,1.022,15.324c0,0,1.187-10.927-2.319-14.676l-4.969,2.9s4.859,9.157,1.561,16.633c0,0,.847-11.466-2.605-15.929l-4.5,3.507s4.551,9.036,1.781,15.237c0,0-.363-13.357-2.759-14.357,0,0-3.936,3.474-4.54,4.9,0,0,3.122,6.6,1.187,10,0,0-1.187-8.893-2.2-8.926,0,0-3.913,5.892-4.331,9.894a21.49,21.49,0,0,1,3.386-10.5,11.828,11.828,0,0,0-6.013,3.111s.616-4.155,6.981-4.529c0,0,3.3-4.463,4.111-4.738,0,0-6.332-.528-10.169,1.176,0,0,3.375-3.936,11.334-2.144l4.4-3.628s-8.333-1.1-11.873.121c0,0,4.068-3.474,13.071-.945l4.837-2.891s-7.1-1.539-11.345-.978c0,0,4.474-2.419,12.763.2l3.463-1.55s-5.211-1.033-6.739-1.187-1.605-.583-1.605-.583a18.019,18.019,0,0,1,9.784,1.1S805.95,139.957,805.818,139.495Z" transform="translate(45.55 -122.873)" fill="#3271f9" opacity="0.1"/>
    <ellipse id="Ellipse_77" data-name="Ellipse 77" cx="44.204" cy="7.475" rx="44.204" ry="7.475" transform="translate(202.253 693.847)" fill="#3271f9"/>
    <path id="Path_786" data-name="Path 786" d="M272.513,753.051a12.8,12.8,0,0,0,4.21-6.365c.55-2.517-.528-5.5-2.946-6.475-2.7-1.033-5.6.847-7.783,2.737s-4.705,4.057-7.563,3.65a11.544,11.544,0,0,0,3.562-10.784,4.529,4.529,0,0,0-.989-2.2c-1.506-1.6-4.221-.924-6.024.341-5.716,4.024-7.31,11.8-7.343,18.776-.572-2.517-.088-5.145-.1-7.7s-.726-5.5-2.913-6.849a8.7,8.7,0,0,0-4.4-1.033c-2.561-.1-5.431.165-7.179,2.045-2.2,2.33-1.616,6.244.275,8.794s4.782,4.188,7.442,5.958a16.488,16.488,0,0,1,5.31,5.068,4.569,4.569,0,0,1,.4.912h16.116a44.825,44.825,0,0,0,9.927-6.881Z" transform="translate(-7.775 -63.953)" fill="#3271f9"/>
    <path id="Path_787" data-name="Path 787" d="M748.922,466.773a5,5,0,0,0-2.737-3.935,5.112,5.112,0,0,0-6.772,2.858L715,517.067l-5.5,202.275h8.795l3.3-201.824,26.867-47.557a5.222,5.222,0,0,0,.462-3.188Z" transform="translate(39.686 -90.794)" fill="#3f3d56"/>
    <path id="Path_788" data-name="Path 788" d="M1178.7,739.979a159.136,159.136,0,0,1-23.174,16.831,3.834,3.834,0,0,1-.429.506,7.153,7.153,0,0,1-3.023,1.517h0a180.958,180.958,0,0,1-89.133,22.888H458.515C389.258,774.6,347,765.154,347,754.787c0-8.036,25.372-15.523,69.059-21.789q6.794-.989,14.17-1.913,4.54-.572,9.289-1.1l5.376-.627q5.98-.682,12.279-1.33h.341l4.4-.44q5.574-.577,11.378-1.1l2.814-.253,7.179-.638q6.992-.627,14.291-1.2,6.057-.473,12.312-.945c42.28-3.133,91.024-5.5,144.066-7.025l15.149-.517,5.1-.11,10.773-.242,4.32-.088,4.54-.088,3.232-.055,15.171-.242,7.794-.11h1.594q27.648-.33,56.329-.341c37.795,0,74.446.451,109.371,1.308h0q30.077.725,58.319,1.847h.176c54.284,2.133,102.874,5.277,143.087,9.179l.737.077c10.323,1,20.1,2.067,29.264,3.166,8.63,1.033,16.732,2.122,24.251,3.232,2.605.385,5.134.781,7.6,1.165l.626.11C1161.8,736.407,1170.951,738.121,1178.7,739.979Z" transform="translate(3.683 -65.745)" fill="#3271f9" opacity="0.1"/>
    <path id="Path_789" data-name="Path 789" d="M1117.622,800.417a3.856,3.856,0,0,1-.429.506,7.153,7.153,0,0,1-3.023,1.517h0a30.465,30.465,0,0,1-6.815,1.1h-.693a29.539,29.539,0,0,1-3.946-.132,18.333,18.333,0,0,0-2.892-.187h-.132a20.529,20.529,0,0,0-4.122,1.022,36.567,36.567,0,0,1-9.125,1.3h-1.1c-3.452,0-6.948-.121-10.41-.1h-1.682c-5.937.154-11.84,1.1-17.776,1.2h-1.9c-5.815-.143-11.763-1.385-16.391-4.9a6.475,6.475,0,0,1-2.2-2.463,6.918,6.918,0,0,1-.385-3.3c.11-1.99.495-4.156,1.99-5.5a8.654,8.654,0,0,1,3.166-1.528c2.012-.649,4.034-1.275,6.046-1.9s4.309-1.3,6.475-1.935l.418-.132,1.209-.363.781-.264a12.784,12.784,0,0,0,2.7-1.231,8.957,8.957,0,0,0,2.781-2.781c.121-.2.253-.407.363-.616s0-.341-.077-.517c-.187-1.374-.33-2.781-.572-4.122a16.488,16.488,0,0,1-8.124-4.6,26.12,26.12,0,0,1-4.738-6.409c-2.737-5.145-4.145-10.894-6.189-16.358-3.133-8.311-7.7-15.984-12.29-23.591-4.2-7.014-8.421-14.049-13.192-20.678-3.177-4.4-6.6-8.586-9.74-12.994a115.426,115.426,0,0,1-18.776-41,54.305,54.305,0,0,0-2.276-8.333c-1.891-4.617-5.353-8.377-8.036-12.6a41.706,41.706,0,0,1-5.816-14.918c-.55-3.012-1.473-6.266-4.474-6.6h0l-.319.627c-6.222,12.093-12.609,24.4-21.986,34.277a36.259,36.259,0,0,0-4.1,4.716,45.315,45.315,0,0,0-2.639,5.079,32.981,32.981,0,0,1-5.837,8.542,16.666,16.666,0,0,1-2.309,1.946,12.413,12.413,0,0,1-3.617,1.814h0a10.682,10.682,0,0,1-1.561.352c0,.132.055.253.066.385s.066.286.088.429a51.671,51.671,0,0,1-2.012,26.307c-.077.264-.165.517-.264.781q-.682,1.847-1.484,3.628c-1.341,2.913-2.935,5.705-4.189,8.663-.209.506-.418,1.011-.6,1.517-4.4,11.774-3.3,24.922-3.87,37.575a41.4,41.4,0,0,1-.978,8.223c-.747,3.045-1.946,6.189-2.605,9.333a15.793,15.793,0,0,0-.143,7.2l-.264.1c-1.176.44-2.374.835-3.573,1.209v.165c.429,2.462.847,4.925,1.275,7.376.363,2.111.792,4.4,2.265,5.892a8.05,8.05,0,0,1,1.1,1.1c.869,1.363.1,3.166.264,4.782.242,2.287,2.352,4.232,2.023,6.508a4.287,4.287,0,0,1-2.572,3.056,7.6,7.6,0,0,1-1.693.539l-.363.077c-.66.121-1.319.187-1.979.253-8.19.813-16.49,1.627-24.6.242-1.605-.275-3.2-.638-4.826-.769a36,36,0,0,0-6.156.253,302.336,302.336,0,0,1-45.281.879c-3.925-.22-8.432-.858-10.51-4.21-1.726-2.781-1.1-6.376-.231-9.553a10.29,10.29,0,0,1,1.33-3.3,2.132,2.132,0,0,1,.242-.308c2.023-2.517,5.827-2.672,9.1-2.573l10.708.319a10.032,10.032,0,0,0,3.144-.242c1.737-.506,3.056-1.891,4.683-2.672,2.045-.978,4.617-1.1,6.09-2.77l.187-.242a13.148,13.148,0,0,0,.726-1.1c0-.077.1-.154.154-.231h0a2.1,2.1,0,0,1,.132-.2c1.352-1.781,3.716-2.375,5.64-3.507a5.8,5.8,0,0,0,.825-.583l.22-.2a22.549,22.549,0,0,1-5.343-5.376,5.4,5.4,0,0,1-1.22-2.133,3.087,3.087,0,0,1,.132-1.792,2.671,2.671,0,0,1,.176-.407l.055-.11c.747-1.473,2.286-2.8,3.133-4.309a.685.685,0,0,0,.077-.154c1.165-2.2,1.4-5.607-.33-7.377.88-14.478,4.859-28.582,5.738-43.1.352-5.749.209-11.521.473-17.292s.88-11.367,1.528-17.029c1.451-12.939,4.969-25.614,4.474-38.608a23.514,23.514,0,0,1,.154-3.628,2.161,2.161,0,0,1,0-.264,22.3,22.3,0,0,1,2.451-7.607,58.433,58.433,0,0,1,5.4-7.607c6.761-8.795,14.885-17.589,17.292-28.406,1.242-5.585,3.99-10.7,6.728-15.72,1.616-2.99,3.3-6.057,5.881-8.256a25.862,25.862,0,0,0,3.881-3.3c1.8-2.331,1.869-5.552,2.935-8.322.55-1.44,1.4-2.759,1.814-4.243a2.246,2.246,0,0,1,.11-.451,29.756,29.756,0,0,0,.385-4.529,10.164,10.164,0,0,1,.121-1.3h0a45.925,45.925,0,0,1,3.749-12.565c.231-.506.451-1.022.671-1.528A47.106,47.106,0,0,1,903.2,511.845a27.008,27.008,0,0,1-3.2-4.826c-2.265-4.5-2.781-9.619-3.848-14.544-2.551-11.741-8.388-22.8-9.2-34.8-.242-3.661,0-7.442-1.275-10.905a21.82,21.82,0,0,0-1.242-2.726c-.2-.374-.385-.747-.583-1.1l-.22-.418-.561-1.1-.9.7a658.465,658.465,0,0,1-70.686,48.282l-2.11,1.253a7.7,7.7,0,0,0-2.792,2.287c-.088.143-.165.286-.242.429h0c-.506,1.044-.638,2.2-1.1,3.3-.99,2.517-3.529,4.122-6.123,4.87a18.908,18.908,0,0,1-13.906-1.792,16.773,16.773,0,0,1-1.583-.879,21.432,21.432,0,0,1-4.046,1.726c-4.4,1.275-9,1.22-13.555,1.209s-9.2,0-13.511,1.5c-2.88.978-5.672,2.594-8.663,2.748a8.1,8.1,0,0,1-1.033,0,14.971,14.971,0,0,1-4.9-1.44l-.9-.407a14.752,14.752,0,0,1-1.363-.737,7.529,7.529,0,0,1-1.33-1.044,4.86,4.86,0,0,1-1.231-2.1,3.483,3.483,0,0,1,0-1.748,1.1,1.1,0,0,1,.374-.66,1.188,1.188,0,0,1,.649-.165,19.789,19.789,0,0,1,3.76.319,13.543,13.543,0,0,0,2.2.121h.4a4.772,4.772,0,0,0,3.3-1.869,2.057,2.057,0,0,0,.286-.528h0a2.429,2.429,0,0,0,.2-.978,1.73,1.73,0,0,0,0-.253c-.462-.209-.923-.418-1.363-.671-.231-.121-.451-.253-.671-.385l-.132-.088a7.475,7.475,0,0,1-1.1-.912,3.852,3.852,0,0,1-.561-.7,4.214,4.214,0,0,1-.649-1.319h0a5.9,5.9,0,0,0-2.737.077c-1.2.33-2.408,1.033-3.595,1.275a3.188,3.188,0,0,1-1.814-.077c-1.715-.616-2.319-2.7-2.682-4.5-.066-.341-.143-.693-.2-1.044h0a5.563,5.563,0,0,1,0-2.045,7.528,7.528,0,0,1,2.891-3.771l3.606-3.023.264-.22a6.334,6.334,0,0,0-.165-.89,5.617,5.617,0,0,1,0-2.056,7.5,7.5,0,0,1,2.891-3.76l7.981-6.717c1.5-1.253,3.122-2.572,5.068-2.7,2.891-.2,5.2,2.2,7.365,4.122,2.726,2.418,6.035,4.4,9.674,4.639a14.215,14.215,0,0,0,5.112-.7l.934-.308c-.2-.407-.4-.814-.583-1.22-.319-.671-.638-1.352-.945-2.034,4.683-.3,8.938-2.869,12.488-5.947s6.6-6.717,10.18-9.74c3.87-3.3,8.311-5.75,12.235-8.927,9.124-7.4,15.181-18.271,24.944-24.79,3.386-2.276,7.3-4.089,9.608-7.475.715-1.1,1.253-2.2,1.99-3.3,2.341-3.3,6.354-4.815,9.663-7.1s6.189-5.64,8.883-8.861c1.913-2.3,3.837-4.6,5.661-6.959,1.682-3.133,3.1-6.409,4.859-9.5a46.655,46.655,0,0,1,5.2-7.343c.451-.879.913-1.759,1.407-2.616s.858-1.44,1.319-2.2c.319-.495.649-.967.989-1.451-1-1.77-1.957-3.3-2.408-3.969l-.22-.3a32.96,32.96,0,0,0-3.1-2.9,29.308,29.308,0,0,1-3.408-.726,32.067,32.067,0,0,1-23.591-30.968.293.293,0,0,1,0-.1,31.878,31.878,0,0,1,3.5-14.489c.462-.9.956-1.77,1.495-2.616a9.9,9.9,0,0,1-1.462-.594,5.793,5.793,0,0,1-2.044-1.682,4.87,4.87,0,0,1-.847-2.133,10.871,10.871,0,0,1,.792-5.321,25.26,25.26,0,0,1,1.022-2.375.924.924,0,0,0,.077-.143c4.914-9.894,15.39-15.973,25.856-16.4,11.29-.451,22.283,4.848,31.188,12.433a41.775,41.775,0,0,1,7.079,7.442c4.65,6.464,6.75,14.731,7.366,22.921a35.172,35.172,0,0,1-.132,7.607,18.129,18.129,0,0,1-.55,2.66c-.143.517-.33,1.033-.528,1.55a10.089,10.089,0,0,1-.495,1.1v.055c-.165.352-.352.682-.539,1.011l-.1.143-.143.231c.088.209.187.429.286.638s.187.407.3.6h.132c2.2.176,4.232.484,6.475.66a14.9,14.9,0,0,1,3.122.484c2.2.66,3.859,2.265,5.705,3.562,4.573,3.232,10.2,4.738,14.7,8.08,6.6,4.925,9.894,13.06,13.9,20.348,5.277,9.762,13.873,18.073,17.666,28.516q2.573,7.113,5.167,14.2c3.375,9.267,6.75,18.578,11.334,27.318,6.376,12.159,15.006,23.086,20.118,35.86a5.717,5.717,0,0,0,2.682,2.968A233.347,233.347,0,0,1,1041.175,507c2.825,5.705,5.5,11.631,6.321,17.952a43.31,43.31,0,0,1-1.374,16.776,81.458,81.458,0,0,1-3.221,9.52,15.69,15.69,0,0,0-1.1,3.4V555c-.22,2.111.583,4.2.8,6.31a11.674,11.674,0,0,1-.561,5.035c-.088.253-.187.506-.286.759a27.15,27.15,0,0,0-1.726,4,4.077,4.077,0,0,0-.088.506c-.363,2.386.583,4.793,1.1,7.179,1.935,8.619,1.583,17.589,1.1,26.384-.253,4.4,3.3,7.926,6.266,11.169,5.5,6.079,9.795,13.192,13.94,20.271a64.968,64.968,0,0,1,5.683,11.367c1.572,4.529,2.2,9.322,3.067,14.016,2.8,14.511,11.96,27.329,14.445,41.873a37.376,37.376,0,0,0,8.5,18.007,38.216,38.216,0,0,1,3.661,4.4,17.644,17.644,0,0,1,1.814,3.957,29.343,29.343,0,0,1,1.506,10.037,15.1,15.1,0,0,0,.275,4.881c1.033,3.375,4.727,5.233,6.255,8.41s.473,7.244,1.1,10.85a11.709,11.709,0,0,0,4.4,7.321c-.88.77-1.8,1.473-2.748,2.2a10.987,10.987,0,0,1,2.275,2.4,10.78,10.78,0,0,1,1.1,1.946c1.451,3.375,1.5,7.387,2.682,10.993.506,1.495,1.22,3.078.781,4.595a5.031,5.031,0,0,0-.374,1.363c0,.989,1.033,1.638,1.429,2.539a2.726,2.726,0,0,1-.572,2.649Z" transform="translate(41.589 -109.351)" fill="url(#linear-gradient)"/>
    <path id="Path_790" data-name="Path 790" d="M871.961,367.284c6.728-1.814,12.719-5.607,18.589-9.355L911.008,344.9c-5.551-.44-10.344-4.4-13.192-9.19s-4.023-10.367-4.991-15.841c-8.795,3.43-16.413,9.245-23.514,15.39-2.814,2.43-8.795,6.1-9.663,9.894s4.672,6.871,6.816,9.41C867.2,355.411,874.137,366.679,871.961,367.284Z" transform="translate(54.59 -104.953)" fill="#fbbebe"/>
    <path id="Path_791" data-name="Path 791" d="M871.961,367.284c6.728-1.814,12.719-5.607,18.589-9.355L911.008,344.9c-5.551-.44-10.344-4.4-13.192-9.19s-4.023-10.367-4.991-15.841c-8.795,3.43-16.413,9.245-23.514,15.39-2.814,2.43-8.795,6.1-9.663,9.894s4.672,6.871,6.816,9.41C867.2,355.411,874.137,366.679,871.961,367.284Z" transform="translate(54.59 -104.953)" opacity="0.1"/>
    <path id="Path_792" data-name="Path 792" d="M773.17,461.354c-3.606,1.847-7.443,3.738-11.477,3.474-3.628-.231-6.937-2.2-9.663-4.606-2.2-1.913-4.463-4.3-7.354-4.1-1.935.132-3.562,1.44-5.057,2.682l-7.97,6.673a7.5,7.5,0,0,0-2.891,3.738,7.41,7.41,0,0,0,.187,3.1c.363,1.781.968,3.859,2.682,4.463s3.584-.693,5.4-1.187a6.354,6.354,0,0,1,6.233,1.836,3.706,3.706,0,0,1,1.1,2.4c0,1.99-2.2,3.3-4.221,3.4s-3.958-.561-5.958-.44a.912.912,0,0,0-1.022.813,4.2,4.2,0,0,0,1.286,3.826,11.156,11.156,0,0,0,3.584,2.2,14.623,14.623,0,0,0,4.9,1.429c3.375.22,6.475-1.649,9.674-2.737,4.309-1.451,8.948-1.5,13.5-1.484s9.168.077,13.533-1.2,8.509-4.1,10.213-8.311a2,2,0,0,0,.187-1.275,2.111,2.111,0,0,0-.923-1.1c-6.134-4.54-8.619-10.059-15.522-13.324Z" transform="translate(41.591 -91.422)" fill="#fbbebe"/>
    <path id="Path_793" data-name="Path 793" d="M773.17,461.354c-3.606,1.847-7.443,3.738-11.477,3.474-3.628-.231-6.937-2.2-9.663-4.606-2.2-1.913-4.463-4.3-7.354-4.1-1.935.132-3.562,1.44-5.057,2.682l-7.97,6.673a7.5,7.5,0,0,0-2.891,3.738,7.41,7.41,0,0,0,.187,3.1c.363,1.781.968,3.859,2.682,4.463s3.584-.693,5.4-1.187a6.354,6.354,0,0,1,6.233,1.836,3.706,3.706,0,0,1,1.1,2.4c0,1.99-2.2,3.3-4.221,3.4s-3.958-.561-5.958-.44a.912.912,0,0,0-1.022.813,4.2,4.2,0,0,0,1.286,3.826,11.156,11.156,0,0,0,3.584,2.2,14.623,14.623,0,0,0,4.9,1.429c3.375.22,6.475-1.649,9.674-2.737,4.309-1.451,8.948-1.5,13.5-1.484s9.168.077,13.533-1.2,8.509-4.1,10.213-8.311a2,2,0,0,0,.187-1.275,2.111,2.111,0,0,0-.923-1.1c-6.134-4.54-8.619-10.059-15.522-13.324Z" transform="translate(41.591 -91.422)" opacity="0.1"/>
    <path id="Path_794" data-name="Path 794" d="M898.509,354.421a13.258,13.258,0,0,0-11.631-1.352,25.111,25.111,0,0,0-10.015,6.673,46.063,46.063,0,0,0-7.068,9.333c-1.869,3.3-3.3,6.75-5.167,10.037-3.3,5.881-7.607,11.07-11.939,16.215-2.693,3.2-5.42,6.442-8.872,8.795s-7.31,3.793-9.652,7.058c-.737,1.033-1.265,2.2-1.99,3.243-2.3,3.364-6.2,5.167-9.6,7.42-9.74,6.486-15.8,17.281-24.9,24.636-3.925,3.166-8.355,5.65-12.213,8.883-3.595,3-6.6,6.6-10.18,9.674s-7.794,5.618-12.466,5.9c3.122,6.959,6.849,13.786,12.2,19.205s13.379,8.883,20.689,6.761c2.594-.748,5.134-2.331,6.123-4.837a20.688,20.688,0,0,1,1.3-3.749,7.693,7.693,0,0,1,2.781-2.276,657.2,657.2,0,0,0,83.669-57.967c7.069-5.76,14.082-10.916,21.338-16.49A46.645,46.645,0,0,0,918.1,405.3a23.9,23.9,0,0,0,2.9-26.329,62.458,62.458,0,0,0-6.662-9.025A79.308,79.308,0,0,0,898.509,354.421Z" transform="translate(44.982 -101.732)" fill="#3271f9"/>
    <path id="Path_795" data-name="Path 795" d="M898.509,354.421a13.258,13.258,0,0,0-11.631-1.352,25.111,25.111,0,0,0-10.015,6.673,46.063,46.063,0,0,0-7.068,9.333c-1.869,3.3-3.3,6.75-5.167,10.037-3.3,5.881-7.607,11.07-11.939,16.215-2.693,3.2-5.42,6.442-8.872,8.795s-7.31,3.793-9.652,7.058c-.737,1.033-1.265,2.2-1.99,3.243-2.3,3.364-6.2,5.167-9.6,7.42-9.74,6.486-15.8,17.281-24.9,24.636-3.925,3.166-8.355,5.65-12.213,8.883-3.595,3-6.6,6.6-10.18,9.674s-7.794,5.618-12.466,5.9c3.122,6.959,6.849,13.786,12.2,19.205s13.379,8.883,20.689,6.761c2.594-.748,5.134-2.331,6.123-4.837a20.688,20.688,0,0,1,1.3-3.749,7.693,7.693,0,0,1,2.781-2.276,657.2,657.2,0,0,0,83.669-57.967c7.069-5.76,14.082-10.916,21.338-16.49A46.645,46.645,0,0,0,918.1,405.3a23.9,23.9,0,0,0,2.9-26.329,62.458,62.458,0,0,0-6.662-9.025A79.308,79.308,0,0,0,898.509,354.421Z" transform="translate(44.982 -101.732)" opacity="0.1"/>
    <path id="Path_796" data-name="Path 796" d="M847.161,725.838c-1.924,1.1-4.287,1.715-5.64,3.5-.44.572-.737,1.242-1.209,1.792-1.462,1.715-4.057,1.792-6.09,2.77-1.627.77-2.946,2.2-4.672,2.649a10.134,10.134,0,0,1-3.155.242l-10.685-.319c-3.386-.1-7.355.077-9.322,2.836a10.073,10.073,0,0,0-1.341,3.3c-.824,3.155-1.495,6.728.231,9.5,2.067,3.3,6.6,3.969,10.5,4.189a303.058,303.058,0,0,0,45.226-.88,35.773,35.773,0,0,1,6.134-.253c1.627.132,3.221.495,4.826.77,8.1,1.374,16.391.572,24.57-.242a12.843,12.843,0,0,0,4.035-.858,4.276,4.276,0,0,0,2.561-3.045c.341-2.265-1.781-4.189-2.012-6.464-.165-1.605.6-3.4-.275-4.76a7.842,7.842,0,0,0-1.1-1.1c-1.473-1.528-1.9-3.76-2.265-5.848l-1.924-11.29a3.474,3.474,0,0,0-.923-2.133,3.178,3.178,0,0,0-1.363-.561c-8.377-1.891-16.963-.165-25.285.891a67.956,67.956,0,0,1-12.939.649c-1.869-.121-2.594-.341-3.99.879S848.909,724.815,847.161,725.838Z" transform="translate(49.092 -65.333)" fill="#3f3d56"/>
    <path id="Path_797" data-name="Path 797" d="M1029.351,738.723a18.536,18.536,0,0,1-4.683,1.836q-6.475,1.891-12.928,3.947a8.57,8.57,0,0,0-3.155,1.517c-1.5,1.319-1.88,3.474-1.99,5.5a6.892,6.892,0,0,0,.385,3.3,6.6,6.6,0,0,0,2.2,2.44c4.925,3.727,11.356,4.881,17.534,4.881s12.312-1.044,18.49-1.209c7.465-.2,15.127.858,22.305-1.231a18.985,18.985,0,0,1,4.243-1.033,18,18,0,0,1,2.88.187,30.536,30.536,0,0,0,11.455-1.044,7.043,7.043,0,0,0,3.034-1.506,2.836,2.836,0,0,0,.813-3.1c-.4-.891-1.407-1.539-1.418-2.517a4.738,4.738,0,0,1,.363-1.363c.451-1.506-.275-3.078-.781-4.562-1.418-4.243-1.187-9.124-3.727-12.807s-7.2-5.2-11.631-5.782a32.252,32.252,0,0,0-10.829.308c-4.013.858-7.761,2.649-11.7,3.793a38.26,38.26,0,0,1-14.071,1.33c-3.144-.264-2.067.231-3.133,2.869a9.358,9.358,0,0,1-3.661,4.254Z" transform="translate(69.188 -64.631)" fill="#3f3d56"/>
    <circle id="Ellipse_78" data-name="Ellipse 78" cx="31.88" cy="31.88" r="31.88" transform="translate(890.999 183.323)" fill="#fbbebe"/>
    <path id="Path_798" data-name="Path 798" d="M1101.528,766.928c-9.894,8.5-23.25,12.213-36.278,12.345-5.5.055-11.2-.539-15.885-3.386-.33-1.8-.462-3.749-.792-5.552-5.684-1.187-10.092-5.815-12.84-10.938s-4.144-10.817-6.189-16.248c-3.122-8.267-7.7-15.885-12.268-23.448-4.2-6.97-8.41-13.961-13.192-20.546-3.166-4.4-6.6-8.531-9.729-12.917A114.324,114.324,0,0,1,975.612,645.5a53.272,53.272,0,0,0-2.276-8.278c-1.891-4.6-5.354-8.333-8.025-12.521a41.365,41.365,0,0,1-5.816-14.83c-.539-2.99-1.462-6.222-4.463-6.53h0c-6.31,12.257-12.741,24.713-22.283,34.683a35.987,35.987,0,0,0-4.1,4.683,45.079,45.079,0,0,0-2.638,5.057,32.588,32.588,0,0,1-5.826,8.487,13.588,13.588,0,0,1-7.5,4.089,51.271,51.271,0,0,1-3.606,31.331c-1.33,2.9-2.924,5.672-4.177,8.608-5.123,12.093-3.936,25.735-4.474,38.85a40.854,40.854,0,0,1-.967,8.168c-1.33,5.365-4.079,11.07-2.749,16.435-13.785,5.266-29.1,4.936-43.7,2.715a21.052,21.052,0,0,1-8.146-2.473,22.413,22.413,0,0,1-5.343-5.343,5.354,5.354,0,0,1-1.22-2.122c-.572-2.506,2.2-4.4,3.485-6.6s1.517-5.683-.253-7.486c.88-14.39,4.859-28.439,5.738-42.874.352-5.717.209-11.455.473-17.182s.88-11.3,1.517-16.93c1.451-12.851,4.969-25.449,4.474-38.366a22.316,22.316,0,0,1,2.649-11.422,57.626,57.626,0,0,1,5.387-7.563c6.75-8.718,14.863-17.457,17.27-28.219,1.242-5.552,3.99-10.63,6.717-15.621,1.616-2.979,3.3-6.024,5.87-8.212a25.723,25.723,0,0,0,3.881-3.3c1.8-2.32,1.869-5.5,2.935-8.267.55-1.429,1.4-2.748,1.8-4.221a24.042,24.042,0,0,0,.495-4.947c.352-5.321,2.4-10.466,4.552-15.336A46.97,46.97,0,0,1,892.108,508.6a27.8,27.8,0,0,1-3.188-4.8c-2.265-4.463-2.781-9.553-3.848-14.445-2.539-11.675-8.377-22.657-9.19-34.585-.242-3.639,0-7.4-1.264-10.839a34.1,34.1,0,0,0-2.045-4.232,17.319,17.319,0,0,1-1.737-4.265c-.7-3.243.264-6.6,0-9.894-.264-2.913-1.506-5.64-2.122-8.487a40.293,40.293,0,0,1-.319-11.213c.275-4.4,1.231-8.937.857-13.28a51.305,51.305,0,0,1,13.8-39.509l.253-.253c2.1-2.2,4.4-4.144,6.288-6.475,2.572-3.122,4.4-6.794,7.113-9.828,1.187-1.352,2.528-2.561,3.7-3.925a32.592,32.592,0,0,1,3.573-4,5.5,5.5,0,0,1,4.969-1.33,13.772,13.772,0,0,0,1.517,4.683c2.287.176,4.32.495,6.6.671a14.9,14.9,0,0,1,3.122.484c2.144.649,3.859,2.2,5.694,3.529,4.573,3.221,10.191,4.716,14.687,8.036,6.6,4.892,9.894,12.972,13.873,20.216,5.266,9.707,13.851,17.963,17.589,28.34l5.156,14.115c3.375,9.212,6.75,18.458,11.323,27.142,6.365,12.093,14.984,22.987,20.1,35.64a5.741,5.741,0,0,0,2.671,2.946,229.908,229.908,0,0,1,18.5,30.781c2.825,5.672,5.5,11.565,6.31,17.842,1.2,8.871-1.22,17.842-4.584,26.131a13.623,13.623,0,0,0-1.1,3.738c-.22,2.1.583,4.166.8,6.266a11.6,11.6,0,0,1-.847,5.76,26.351,26.351,0,0,0-1.726,3.98c-.594,2.528.462,5.1,1.033,7.629,1.935,8.564,1.583,17.435,1.1,26.208-.253,4.4,3.3,7.882,6.255,11.1,5.5,6.035,9.784,13.093,13.928,20.14a65.044,65.044,0,0,1,5.673,11.3c1.572,4.5,2.2,9.256,3.067,13.928,2.792,14.412,11.939,27.153,14.423,41.609a36.97,36.97,0,0,0,8.487,17.886,38.983,38.983,0,0,1,3.66,4.4,17.7,17.7,0,0,1,1.8,3.936,28.975,28.975,0,0,1,1.506,9.971,14.9,14.9,0,0,0,.275,4.848c1.033,3.353,4.727,5.2,6.244,8.355s.473,7.2,1.1,10.784A11.611,11.611,0,0,0,1101.528,766.928Z" transform="translate(52.472 -104.236)" fill="#3271f9"/>
    <path id="Path_799" data-name="Path 799" d="M779.17,452.354c-3.606,1.847-7.442,3.738-11.477,3.474-3.628-.231-6.937-2.2-9.663-4.606-2.2-1.913-4.463-4.3-7.354-4.1-1.935.132-3.562,1.44-5.057,2.682l-7.97,6.673a7.5,7.5,0,0,0-2.891,3.738,7.406,7.406,0,0,0,.187,3.1c.363,1.781.967,3.859,2.682,4.463s3.584-.693,5.4-1.187a6.353,6.353,0,0,1,6.233,1.836,3.7,3.7,0,0,1,1.1,2.4c0,1.99-2.2,3.3-4.221,3.4s-3.958-.561-5.958-.44a.912.912,0,0,0-1.022.814,4.2,4.2,0,0,0,1.286,3.826,11.158,11.158,0,0,0,3.584,2.2,14.622,14.622,0,0,0,4.9,1.429c3.375.22,6.475-1.649,9.674-2.737,4.309-1.451,8.948-1.5,13.5-1.484s9.168.077,13.533-1.2,8.509-4.1,10.213-8.311a2,2,0,0,0,.187-1.275,2.11,2.11,0,0,0-.923-1.1c-6.134-4.54-8.619-10.059-15.523-13.324Z" transform="translate(42.187 -92.316)" fill="#fbbebe"/>
    <path id="Path_800" data-name="Path 800" d="M854.819,304.658c-1.9.308-3.518,1.594-5.321,2.309a9.168,9.168,0,0,1-7.519-.4,5.806,5.806,0,0,1-2.056-1.671c-1.473-2.045-.956-5.013-.055-7.409,4.265-11.334,15.654-18.348,26.933-18.8s22.25,4.815,31.144,12.345a42.562,42.562,0,0,1,7.069,7.4c4.639,6.431,6.739,14.643,7.354,22.778a29.68,29.68,0,0,1-.67,10.2,12.4,12.4,0,0,1-5.782,7.794c-3.144,1.605-6.915,1.1-10.092-.44s-5.9-3.968-8.63-6.288a12.82,12.82,0,0,0-4.3-2.737,4.4,4.4,0,0,0-4.65,1.1c-1.473,1.77-1.1,4.672-2.44,6.6s-4.134,2.2-6.486,2.2-4.738-.2-6.145-2.067c-1.286-1.693-1.1-4.166-.615-6.3s1.308-4.243,1.1-6.431c-.451-4.4-4.3-7.1-5.5-11.147-.78-2.649.934-3.771.759-6.167C858.788,305.417,856.524,304.384,854.819,304.658Z" transform="translate(52.548 -109.045)" fill="#3f3d56"/>
    <path id="Path_801" data-name="Path 801" d="M948.368,584.884v.275h0c-6.31,12.258-12.741,24.713-22.283,34.684a35.98,35.98,0,0,0-4.1,4.683,45.093,45.093,0,0,0-2.638,5.057,32.58,32.58,0,0,1-5.827,8.487l-7.959,3.98L930.844,510.13Z" transform="translate(59.159 -86.056)" opacity="0.1"/>
    <path id="Path_802" data-name="Path 802" d="M915.608,401.3a46.649,46.649,0,0,1-7.179,6.288c-7.255,5.5-14.291,10.685-21.338,16.49q-8.52,6.937-17.281,13.588a17.312,17.312,0,0,1-1.737-4.265c-.7-3.243.264-6.6,0-9.894-.264-2.913-1.506-5.64-2.122-8.487a40.3,40.3,0,0,1-.319-11.213c.275-4.4,1.231-8.937.857-13.28a51.3,51.3,0,0,1,13.862-39.587l.253-.253a19.306,19.306,0,0,1,3.738-1.671,13.258,13.258,0,0,1,11.631,1.407,79.322,79.322,0,0,1,15.83,15.522,62.449,62.449,0,0,1,6.662,9.026A23.9,23.9,0,0,1,915.608,401.3Z" transform="translate(55.169 -102.132)" opacity="0.1"/>
    <path id="Path_803" data-name="Path 803" d="M904.509,345.421a13.259,13.259,0,0,0-11.631-1.352,25.11,25.11,0,0,0-10.015,6.673,46.067,46.067,0,0,0-7.068,9.333c-1.869,3.3-3.3,6.75-5.167,10.037-3.3,5.881-7.607,11.07-11.939,16.215-2.693,3.2-5.42,6.442-8.872,8.794s-7.31,3.793-9.652,7.058c-.736,1.033-1.264,2.2-1.99,3.243-2.3,3.364-6.2,5.167-9.6,7.42-9.74,6.486-15.8,17.281-24.9,24.636-3.925,3.166-8.355,5.651-12.214,8.883-3.595,3-6.6,6.6-10.18,9.674s-7.794,5.617-12.466,5.9c3.122,6.959,6.849,13.785,12.2,19.205s13.379,8.883,20.689,6.761c2.594-.748,5.134-2.331,6.123-4.837a20.688,20.688,0,0,1,1.3-3.749,7.7,7.7,0,0,1,2.781-2.276,657.181,657.181,0,0,0,83.669-57.967c7.069-5.76,14.082-10.916,21.338-16.49A46.657,46.657,0,0,0,924.1,396.3a23.9,23.9,0,0,0,2.9-26.329,62.456,62.456,0,0,0-6.662-9.025A79.32,79.32,0,0,0,904.509,345.421Z" transform="translate(45.578 -102.626)" fill="#3271f9"/>
    <g id="Group_47" data-name="Group 47" transform="translate(891.535 183.795)" opacity="0.1">
      <path id="Path_804" data-name="Path 804" d="M871.519,333.928c-2.2,0-4.738-.2-6.145-2.067-1.275-1.693-1.1-4.166-.616-6.3s1.308-4.243,1.1-6.431c-.451-4.4-4.3-7.1-5.5-11.147-.781-2.649.934-3.771.759-6.167-.154-2.078-2.408-3.111-4.111-2.836-1.9.308-3.518,1.594-5.321,2.309a9.168,9.168,0,0,1-7.519-.4,5.8,5.8,0,0,1-2.056-1.671c-1.473-2.045-.956-5.013-.055-7.409,0-.088.077-.165.11-.253a26.571,26.571,0,0,0-2.308,4.65c-.9,2.4-1.418,5.365.055,7.409a5.806,5.806,0,0,0,2.056,1.671,9.168,9.168,0,0,0,7.519.4c1.8-.714,3.419-2,5.321-2.309,1.7-.275,3.958.758,4.111,2.836.176,2.4-1.539,3.518-.758,6.167,1.176,4.045,5.024,6.794,5.5,11.147.22,2.2-.583,4.309-1.1,6.431s-.66,4.606.616,6.3c1.407,1.869,3.925,2.045,6.145,2.067s5.079-.132,6.486-2.2a9.269,9.269,0,0,0,1.176-3.375C875.488,333.818,873.4,333.95,871.519,333.928Z" transform="translate(-838.988 -291.56)"/>
      <path id="Path_805" data-name="Path 805" d="M904.494,330.618c-3.144,1.6-6.915,1.1-10.092-.44s-5.9-3.969-8.63-6.288a12.819,12.819,0,0,0-4.3-2.737,4.4,4.4,0,0,0-4.65,1.1,8.334,8.334,0,0,0-1.374,3.694,4.651,4.651,0,0,1,3.826-.407,12.818,12.818,0,0,1,4.3,2.737c2.726,2.32,5.5,4.76,8.63,6.288s6.948,2.045,10.092.44a12.235,12.235,0,0,0,5.64-7.4,10.169,10.169,0,0,1-3.441,3.012Z" transform="translate(-835.366 -288.646)"/>
    </g>
    <circle id="Ellipse_79" data-name="Ellipse 79" cx="32.98" cy="32.98" r="32.98" transform="translate(654.095 632.395)" fill="#3f3d56"/>
    <circle id="Ellipse_80" data-name="Ellipse 80" cx="32.98" cy="32.98" r="32.98" transform="translate(654.095 632.395)" opacity="0.1"/>
    <circle id="Ellipse_81" data-name="Ellipse 81" cx="20.887" cy="20.887" r="20.887" transform="translate(666.188 644.487)" fill="#65617d"/>
    <circle id="Ellipse_82" data-name="Ellipse 82" cx="20.887" cy="20.887" r="20.887" transform="translate(666.188 644.487)" opacity="0.1"/>
    <path id="Path_806" data-name="Path 806" d="M630,682.928l21.635,48.92a4.2,4.2,0,0,0,7.618.154l25.713-52.372Z" transform="translate(31.79 -69.222)" fill="#3f3d56"/>
    <path id="Path_807" data-name="Path 807" d="M630,682.928l21.635,48.92a4.2,4.2,0,0,0,7.618.154l25.713-52.372Z" transform="translate(31.79 -69.222)" opacity="0.1"/>
    <circle id="Ellipse_83" data-name="Ellipse 83" cx="32.98" cy="32.98" r="32.98" transform="translate(448.522 632.395)" fill="#3f3d56"/>
    <circle id="Ellipse_84" data-name="Ellipse 84" cx="32.98" cy="32.98" r="32.98" transform="translate(448.522 632.395)" opacity="0.1"/>
    <circle id="Ellipse_85" data-name="Ellipse 85" cx="20.887" cy="20.887" r="20.887" transform="translate(460.615 644.487)" fill="#65617d"/>
    <circle id="Ellipse_86" data-name="Ellipse 86" cx="20.887" cy="20.887" r="20.887" transform="translate(460.615 644.487)" opacity="0.1"/>
    <path id="Path_808" data-name="Path 808" d="M443,682.928l21.635,48.92a4.2,4.2,0,0,0,7.618.154l25.713-52.372Z" transform="translate(13.218 -69.222)" fill="#3f3d56"/>
    <path id="Path_809" data-name="Path 809" d="M443,682.928l21.635,48.92a4.2,4.2,0,0,0,7.618.154l25.713-52.372Z" transform="translate(13.218 -69.222)" opacity="0.1"/>
    <path id="Path_810" data-name="Path 810" d="M753.425,468.773a5,5,0,0,0-2.737-3.935,5.112,5.112,0,0,0-6.772,2.858L725,514.669l-5.5,211.069h8.795l3.3-210.619,21.371-43.159a5.22,5.22,0,0,0,.462-3.188Z" transform="translate(40.68 -90.596)" fill="#3f3d56"/>
    <path id="Path_811" data-name="Path 811" d="M368.5,564.7l29.682-18.689,320.452-2.748,8.245,21.437Z" transform="translate(36.599 53.956)" fill="#3271f9"/>
    <path id="Path_812" data-name="Path 812" d="M368.5,582.866V563.078l364.183-3.518-.352,13.412H375.1v9.894Z" transform="translate(36.599 55.575)" fill="#3f3d56"/>
    <circle id="Ellipse_87" data-name="Ellipse 87" cx="32.98" cy="32.98" r="32.98" transform="translate(418.291 643.938)" fill="#3f3d56"/>
    <circle id="Ellipse_88" data-name="Ellipse 88" cx="20.887" cy="20.887" r="20.887" transform="translate(430.384 656.03)" fill="#65617d"/>
    <path id="Path_813" data-name="Path 813" d="M415.5,693.428l21.635,48.92a4.2,4.2,0,0,0,7.618.154l25.713-52.372Z" transform="translate(10.486 -68.179)" fill="#3f3d56"/>
    <circle id="Ellipse_89" data-name="Ellipse 89" cx="32.98" cy="32.98" r="32.98" transform="translate(674.433 643.938)" fill="#3f3d56"/>
    <circle id="Ellipse_90" data-name="Ellipse 90" cx="20.887" cy="20.887" r="20.887" transform="translate(686.525 656.03)" fill="#65617d"/>
    <path id="Path_814" data-name="Path 814" d="M648.5,693.428l21.635,48.92a4.2,4.2,0,0,0,7.618.154l25.713-52.372Z" transform="translate(33.628 -68.179)" fill="#3f3d56"/>
    <rect id="Rectangle_100" data-name="Rectangle 100" width="137.415" height="75.853" transform="translate(446.324 532.357)" fill="#65617d"/>
    <rect id="Rectangle_101" data-name="Rectangle 101" width="41.774" height="8.795" transform="translate(494.694 545.548)" opacity="0.1"/>
    <rect id="Rectangle_102" data-name="Rectangle 102" width="31.331" height="6.596" transform="translate(499.916 546.648)" opacity="0.1"/>
    <rect id="Rectangle_103" data-name="Rectangle 103" width="137.415" height="75.853" transform="translate(585.938 532.357)" fill="#65617d"/>
    <rect id="Rectangle_104" data-name="Rectangle 104" width="41.774" height="8.795" transform="translate(634.308 545.548)" opacity="0.1"/>
    <rect id="Rectangle_105" data-name="Rectangle 105" width="31.331" height="6.596" transform="translate(639.529 546.648)" opacity="0.1"/>
    <rect id="Rectangle_106" data-name="Rectangle 106" width="137.415" height="75.853" transform="translate(446.324 454.305)" fill="#65617d"/>
    <rect id="Rectangle_107" data-name="Rectangle 107" width="41.774" height="8.795" transform="translate(494.694 467.497)" opacity="0.1"/>
    <rect id="Rectangle_108" data-name="Rectangle 108" width="31.331" height="6.596" transform="translate(499.916 468.596)" opacity="0.1"/>
    <rect id="Rectangle_109" data-name="Rectangle 109" width="137.415" height="75.853" transform="translate(585.938 454.305)" fill="#65617d"/>
    <rect id="Rectangle_110" data-name="Rectangle 110" width="41.774" height="8.795" transform="translate(634.308 467.497)" opacity="0.1"/>
    <rect id="Rectangle_111" data-name="Rectangle 111" width="31.331" height="6.596" transform="translate(639.529 468.596)" opacity="0.1"/>
    <rect id="Rectangle_112" data-name="Rectangle 112" width="137.415" height="75.853" transform="translate(446.324 375.154)" fill="#65617d"/>
    <rect id="Rectangle_113" data-name="Rectangle 113" width="41.774" height="8.795" transform="translate(494.694 388.346)" opacity="0.1"/>
    <rect id="Rectangle_114" data-name="Rectangle 114" width="31.331" height="6.596" transform="translate(499.916 389.445)" opacity="0.1"/>
    <rect id="Rectangle_115" data-name="Rectangle 115" width="137.415" height="75.853" transform="translate(585.938 375.154)" fill="#65617d"/>
    <rect id="Rectangle_116" data-name="Rectangle 116" width="41.774" height="8.795" transform="translate(634.308 388.346)" opacity="0.1"/>
    <rect id="Rectangle_117" data-name="Rectangle 117" width="31.331" height="6.596" transform="translate(639.529 389.445)" opacity="0.1"/>
    <rect id="Rectangle_118" data-name="Rectangle 118" width="137.415" height="75.853" transform="translate(585.938 296.003)" fill="#65617d"/>
    <rect id="Rectangle_119" data-name="Rectangle 119" width="41.774" height="8.795" transform="translate(634.308 309.195)" opacity="0.1"/>
    <rect id="Rectangle_120" data-name="Rectangle 120" width="31.331" height="6.596" transform="translate(639.529 310.294)" opacity="0.1"/>
  </g>
</svg>
