<svg id="Group_46" data-name="Group 46" xmlns="http://www.w3.org/2000/svg" width="864.981" height="1045.515" viewBox="0 0 864.981 1045.515">
  <g id="Group_35" data-name="Group 35" transform="translate(1.134 88.506)">
    <path id="Path_756" data-name="Path 756" d="M759.181,37.094H76.881A45.426,45.426,0,0,0,31.5,82.476v467.56a45.426,45.426,0,0,0,45.382,45.382h682.3a45.426,45.426,0,0,0,45.382-45.382V82.476a45.426,45.426,0,0,0-45.382-45.382Z" transform="translate(42.524 -37.094)" fill="#f2f2f2"/>
    <path id="Path_757" data-name="Path 757" d="M728.157,52.188H45.857A45.426,45.426,0,0,0,.475,97.57V565.13a45.426,45.426,0,0,0,45.382,45.382h682.3a45.426,45.426,0,0,0,45.382-45.382V97.57A45.426,45.426,0,0,0,728.157,52.188Zm40.61,375.326A178.225,178.225,0,0,1,590.541,605.739H45.857a40.61,40.61,0,0,1-40.61-40.61V97.57a40.61,40.61,0,0,1,40.61-40.61h682.3a40.61,40.61,0,0,1,40.61,40.61Z" transform="translate(-0.475 -16.174)" fill="#3f3d56"/>
  </g>
  <g id="Group_36" data-name="Group 36" transform="translate(94.555 334.488)">
    <path id="Path_758" data-name="Path 758" d="M43.667,252.179l-4.038-2.542c2.625-4.172,5.334-8.216,8.048-12.02l3.884,2.773c-2.662,3.728-5.317,7.694-7.894,11.789Z" transform="translate(-39.629 -5.151)" fill="#ccc"/>
    <path id="Path_759" data-name="Path 759" d="M54.334,350.8l-3.416-3.332a139.525,139.525,0,0,1,22.776-19.04l2.631,3.982A134.711,134.711,0,0,0,54.334,350.8ZM173.384,320.68a91.173,91.173,0,0,1-14.776-1.365l.771-4.709a85.374,85.374,0,0,0,14,1.3,64.614,64.614,0,0,0,14.128-1.58l1.03,4.66A69.391,69.391,0,0,1,173.384,320.68Zm-71.4-.631-1.435-4.551a100.551,100.551,0,0,1,15.783-3.6,92.809,92.809,0,0,1,13.419-.987h.294v4.772h-.294a88.02,88.02,0,0,0-12.735.938,95.782,95.782,0,0,0-15.031,3.431Zm113.744-13.791-3.05-3.67c6.585-5.47,11.3-12.084,16.3-19.087l1.993-2.786,3.873,2.789-1.982,2.768C227.678,293.535,222.783,300.394,215.724,306.258ZM253.993,262.5l-2.936-3.763a87.617,87.617,0,0,1,22.216-12.433q2.176-.856,4.167-1.533l1.54,4.516c-1.265.432-2.582.916-3.961,1.459A82.888,82.888,0,0,0,253.993,262.5Zm57.61-16.575c-1.605,0-3.128-.015-4.591-.031l.056-4.772c1.5.017,3.057.021,4.709.031a201.773,201.773,0,0,0,24.164-1.4l.55,4.739A209.4,209.4,0,0,1,311.6,245.929Zm53.916-6.249L364.573,235c8.571-1.734,18.543-3.8,28.413-6.344l1.193,4.621C384.2,235.856,374.151,237.934,365.519,239.679Zm56.77-15.446-1.785-4.426a134.339,134.339,0,0,0,25.4-13.3l2.675,3.952A139.015,139.015,0,0,1,422.289,224.233Zm48.215-34.1-3.873-2.789c1.332-1.848,2.483-3.65,3.6-5.393,3.285-5.145,6.684-10.466,14.775-17l.566-.453,2.957,3.744-.525.421c-7.487,6.044-10.529,10.809-13.751,15.854C473.1,186.32,471.912,188.179,470.5,190.135Zm42.809-35.79-1.741-4.443a158.813,158.813,0,0,1,28.55-7.976l.881,4.69A154.159,154.159,0,0,0,513.313,154.345Z" transform="translate(-23.983 -137.779)" fill="#ccc"/>
    <path id="Path_760" data-name="Path 760" d="M268.716,145.52l-.3-4.763c4.637-.29,9.485-.481,14.409-.57l.086,4.772C278.059,145.046,273.282,145.235,268.716,145.52Z" transform="translate(277.472 -140.188)" fill="#ccc"/>
  </g>
  <g id="Group_37" data-name="Group 37" transform="translate(78.746 176.228)">
    <path id="Path_761" data-name="Path 761" d="M106.063,73.859H39.112a6.12,6.12,0,0,0,0,12.24h66.951a6.12,6.12,0,0,0,0-12.24Z" transform="translate(-33.003 -73.859)" fill="#e6e6e6"/>
    <path id="Path_762" data-name="Path 762" d="M153.063,73.859H86.112a6.12,6.12,0,0,0,0,12.24h66.951a6.12,6.12,0,0,0,0-12.24Z" transform="translate(32.138 -73.859)" fill="#e6e6e6"/>
    <path id="Path_763" data-name="Path 763" d="M200.063,73.859H133.112a6.12,6.12,0,0,0,0,12.24h66.951a6.12,6.12,0,0,0,0-12.24Z" transform="translate(97.28 -73.859)" fill="#e6e6e6"/>
  </g>
  <rect id="Rectangle_57" data-name="Rectangle 57" width="608.429" height="4.772" transform="translate(78.679 577.86)" fill="#e6e6e6"/>
  <path id="Path_764" data-name="Path 764" d="M346.619,98.96c-43.306,1.121-75.612,13.863-96.084,37.818-7.564,8.876-10.642,15.867-13.887,23.263-3.221,7.3-6.514,14.817-14.173,24.624v-8.112a106.2,106.2,0,0,0,9.806-18.444c3.388-7.731,6.609-15.032,14.626-24.409,21.379-25.053,54.878-38.343,99.568-39.512l.143,4.772Z" transform="translate(308.35 130.544)" fill="#ccc"/>
  <path id="Path_765" data-name="Path 765" d="M490.175,125.707c-3.221,7.3-6.514,14.817-14.173,24.624q-1.36,1.754-2.935,3.651c-27.63,32.855-64.541,43.64-94.223,52.325-1.861.549-3.675,1.05-5.44,1.527-26.389,7.158-40.848,6.9-51.609,6.729-10.808-.191-17.943-.31-30.708,6.991-23.407,13.338-33,32.855-42.28,51.729-9.568,19.422-18.587,37.77-41.588,46.384-15.962,5.965-27.176,3.006-39.035-.1-10.188-2.7-28.55-69.06-44.809-78.738C89.8,247.87,69.4,357.578,43.945,416.322l-4.39-1.909C65.682,354.19,87.2,243.551,122.373,236.155c15.676-3.293,36.315,75.97,47.028,78.786,11.119,2.935,21.593,5.679,36.148.239,21.235-7.922,29.443-24.647,38.963-44,9.162-18.611,19.541-39.7,44.189-53.78,13.91-7.945,22-7.8,33.165-7.611,10.641.191,25.005.429,51.538-6.9,1.336-.382,2.7-.764,4.1-1.169,29.062-8.494,65.209-19.064,91.885-50.8A102.76,102.76,0,0,0,476,142.218a106.2,106.2,0,0,0,9.806-18.444c3.388-7.731,7.611-5.464,4.366,1.933Z" transform="translate(54.824 164.879)" fill="#3271f9"/>
  <g id="Group_38" data-name="Group 38" transform="translate(206.693 418.089)">
    <path id="Path_766" data-name="Path 766" d="M152.83,397.019a38.972,38.972,0,0,0-8.974-16.188l-13.991-63.778-30.5,7.471,17.476,63.891a38.672,38.672,0,0,0,.969,18.436c4.315,15.025,15.651,25,25.32,22.289s14.01-17.1,9.7-32.121Z" transform="translate(-68.966 21.347)" fill="#ffb6b6"/>
    <path id="Path_767" data-name="Path 767" d="M166.272,175.229s-48.16-.986-60.405,34.085C94.721,241.236,81.507,328.937,88.65,334l30.4,215.9,43.356-5.958L151.283,284.9Z" transform="translate(-86.628 -175.226)" fill="#3271f9"/>
  </g>
  <path id="Path_768" data-name="Path 768" d="M369.192,348.732,360.65,575.4H247.315L242.734,473.83,222.6,575.4H101.125l15.151-174.607,15.652-36.72,10.594-24.886Z" transform="translate(140.159 470.114)" fill="#2f2e41"/>
  <path id="Path_769" data-name="Path 769" d="M269.723,159.96l-78.738-4.772-26.246,33.4-57.264,21.474,26.246,255.3-11.93,152.7s167.02,133.616,238.6-14.316L341.3,424.806l4.772-207.582L291.2,193.364Z" transform="translate(148.961 215.09)" fill="#3271f9"/>
  <g id="Group_39" data-name="Group 39" transform="translate(441.865 284.934)">
    <path id="Path_770" data-name="Path 770" d="M264.47,151.463a47.554,47.554,0,0,1-2.729,22.289l13.116,78.289-37.436,5.151-9.274-79.971a47.55,47.55,0,0,1-7.227-21.26c-1.952-18.9,6.215-35.224,18.241-36.466s23.357,13.071,25.308,31.968h0Z" transform="translate(-136.068 -119.419)" fill="#ffb6b6"/>
    <path id="Path_771" data-name="Path 771" d="M248.387,234.375c-12.905-22.058-44.918-24.137-59.256-2.983-3.92,5.783-2.828,12.284-3.763,20.094C181.4,284.644,244.933,382.621,288.9,393.9c5.769,1.48,9.056,7.7,14.879,8.955h0a26.788,26.788,0,0,0,32.379-27.6L324.213,149.281l-50.171,17.112,3.211,117.321-28.866-49.339Z" transform="translate(-185.191 -78.032)" fill="#3271f9"/>
  </g>
  <g id="Group_40" data-name="Group 40" transform="translate(303.309 204.321)">
    <circle id="Ellipse_74" data-name="Ellipse 74" cx="69.356" cy="69.356" r="69.356" transform="translate(14.822 21.071)" fill="#ffb6b6"/>
    <path id="Path_772" data-name="Path 772" d="M275.9,125.133c-.6.143,9.13-9.337,9.544-9.544,9.544-4.772-.263,41.874-7.158,40.562-16.965-3.221-24.289-9.616-30.875,6.347-1.837,4.438-2.983,9.449-6.561,12.622-4.915,4.319-13.075,3.961-17.084,9.114-3.221,4.152-2.291,10.26.1,14.936,2.386,4.7,6.013,8.685,8.184,13.481,2.434,5.392-7.945,22.548-11.906,32.187v.024l-.024.056c-1.052,2.528-3.553-4.755-6.194-5.482-3.16-.87-7.814,6.591-12.847,5.235-.024,0-.048-.024-.072-.024-4.8-1.336-10.14-2.768-15.437-4.2h-.024c-14.913-4.056-18.682,1.766-19.4,1.6l-9.258-9.687c-3.177-2.313-2.818-9.781-5.058-11.787-1.832-1.64-6.4,2.15-7.746.573-6.6-7.731-8.119-15.464-12.01-30.732-3.555-13.958-10.928-55.737,4.223-57.622,14.292-1.789,3.841-21.689,18.229-20.949-.859-3.627.74-7.516,3.34-10.188,2.577-2.7,6.013-4.366,9.472-5.8,17.06-6.967,14.221-12.956,32.211-8.9,1.789-2.505,27.773-.835,31.018,0,.239.048-8.041,2.028,4.772,0-.477,2.935,7.635,4.223,7.158,7.158,1.79-2.41,21.021,11.429,21.474,14.316.6,3.6-4.844,1.766-1.217,2.314,2.147.334,5.822,4.7,5.464,6.872,1.551-2.1,3.1-4.176,4.676-6.275.286.024.549.072.835.119,7.253,1.384-1.062,25.1-.764,17.7.549-13.576,10.164-5.631,2.935-4.032Z" transform="translate(-127.12 -85.633)" fill="#2f2e41"/>
  </g>
  <path id="Path_773" data-name="Path 773" d="M309.616,316.048a1.568,1.568,0,0,0,2.913,0,133.09,133.09,0,0,1,14.8-27.331,1.576,1.576,0,0,0-1.818-2.409l-12.367,4.474V214.224H309v76.558l-12.372-4.475a1.576,1.576,0,0,0-1.818,2.409,133.212,133.212,0,0,1,14.8,27.332Z" transform="translate(408.176 296.914)" fill="#3f3d56"/>
  <path id="Path_774" data-name="Path 774" d="M334.865,336.477a1.568,1.568,0,0,0,2.281,1.811,133.1,133.1,0,0,1,28.586-12.2,1.576,1.576,0,0,0,.075-3.017l-12.467-4.188,47.612-59.952-3.242-2.575L350.1,316.31l-6.905-11.2a1.576,1.576,0,0,0-2.922.756,133.208,133.208,0,0,1-5.406,30.609Z" transform="translate(464.028 355.312)" fill="#3f3d56"/>
  <g id="Group_42" data-name="Group 42" transform="translate(662.743 633.32)">
    <path id="Path_775" data-name="Path 775" d="M375.182,374.99H294.723a9.07,9.07,0,0,1-9.06-9.06c-10.638-31.094-10.428-61.561,0-91.439a9.07,9.07,0,0,1,9.06-9.06h80.459a9.07,9.07,0,0,1,9.059,9.06V365.93a9.07,9.07,0,0,1-9.059,9.06Z" transform="translate(-277.763 -265.432)" fill="#e6e6e6"/>
    <path id="Path_776" data-name="Path 776" d="M305.805,266.563a23.6,23.6,0,0,0-23.6,23.6v72.26a8.3,8.3,0,0,0,8.3,8.3H335a40.385,40.385,0,0,0,40.385-40.385V274.864a8.3,8.3,0,0,0-8.3-8.3Z" transform="translate(-271.607 -263.864)" fill="#fff"/>
    <g id="Group_41" data-name="Group 41" transform="translate(16.321 25.827)">
      <path id="Path_777" data-name="Path 777" d="M332.468,279.7H294.8a1.722,1.722,0,1,1,0-3.444h37.67a1.722,1.722,0,0,1,0,3.444Z" transform="translate(-272.862 -276.257)" fill="#e6e6e6"/>
      <path id="Path_778" data-name="Path 778" d="M332.468,295.094H294.8a1.722,1.722,0,1,1,0-3.444h37.67a1.722,1.722,0,0,1,0,3.444Z" transform="translate(-272.862 -254.923)" fill="#e6e6e6"/>
      <path id="Path_779" data-name="Path 779" d="M364.424,287.4h-78.1a1.722,1.722,0,1,1,0-3.444h78.1a1.722,1.722,0,0,1,0,3.444Z" transform="translate(-284.604 -265.583)" fill="#e6e6e6"/>
    </g>
    <path id="Path_780" data-name="Path 780" d="M338.374,301.352H305.786a1.722,1.722,0,1,1,0-3.444h32.588a1.722,1.722,0,0,1,0,3.444Z" transform="translate(-241.312 -220.421)" fill="#e6e6e6"/>
  </g>
  <g id="Group_43" data-name="Group 43" transform="translate(0)">
    <ellipse id="Ellipse_75" data-name="Ellipse 75" cx="29.737" cy="29.111" rx="29.737" ry="29.111" transform="translate(0 0.766)" fill="#3271f9"/>
    <path id="Path_781" data-name="Path 781" d="M211.141,19.918H51.076A9.959,9.959,0,0,1,51.076,0H211.141a9.959,9.959,0,0,1,0,19.918Z" transform="translate(56.988)" fill="#f2f2f2"/>
    <path id="Path_782" data-name="Path 782" d="M336.056,34.045H51.076a9.959,9.959,0,0,1,0-19.918H336.056a9.959,9.959,0,0,1,0,19.918Z" transform="translate(56.988 19.58)" fill="#f2f2f2"/>
  </g>
</svg>
