<svg id="Group_51" data-name="Group 51" xmlns="http://www.w3.org/2000/svg" width="1568.432" height="930.261" viewBox="0 0 1568.432 930.261">
  <path id="Path_838" data-name="Path 838" d="M347.688,726.273l25.189-7.99a85.262,85.262,0,0,0-.607-41.019c-10.12,22.5-39.809,28.014-56.725,45.973a51.286,51.286,0,0,0-13.119,42.473l-5.3,17.977a85.938,85.938,0,0,0,62.545-35.578,83.011,83.011,0,0,0,9.727-18.414C358.656,728.619,347.688,726.273,347.688,726.273Z" transform="translate(13.79 143.011)" fill="#f2f2f2"/>
  <path id="Path_839" data-name="Path 839" d="M910.573,726.273l-25.189-7.99a85.266,85.266,0,0,1,.607-41.019c10.12,22.5,39.809,28.014,56.725,45.973a51.286,51.286,0,0,1,13.119,42.473l5.3,17.977a85.938,85.938,0,0,1-62.545-35.578,83.016,83.016,0,0,1-9.727-18.414C899.605,728.619,910.573,726.273,910.573,726.273Z" transform="translate(343.558 143.011)" fill="#f2f2f2"/>
  <path id="Path_840" data-name="Path 840" d="M323.853,707.1l18.982-18.385A85.263,85.263,0,0,0,324,652.267c.977,24.652-23.137,42.827-30.269,66.446a51.285,51.285,0,0,0,7.2,43.866l3.274,18.454a85.938,85.938,0,0,0,40.114-59.738,83.008,83.008,0,0,0,.494-20.819C334.716,704.3,323.853,707.1,323.853,707.1Z" transform="translate(10.709 128.946)" fill="#f2f2f2"/>
  <path id="Path_841" data-name="Path 841" d="M383.508,513.464a14.31,14.31,0,0,1-16.2-14.8L275.819,405.83l25.541-17.781,81.9,96.841a14.388,14.388,0,0,1,.247,28.574Z" transform="translate(1.8 -19.729)" fill="#ffb6b6"/>
  <path id="Path_842" data-name="Path 842" d="M258.5,379.359s-6.484,3.887,4.308,15.721c8.64,9.475,46.344,55.029,61.394,64.54a11.242,11.242,0,0,0,4.418,13.055L351.762,443.8c-1.322-8.279-6.9-7.856-10.039-6.851L327.205,418.9l-32.893-55.172L263.14,376.466Z" transform="translate(-9.03 -33.412)" fill="#3271f9"/>
  <path id="Path_843" data-name="Path 843" d="M113.4,599.291h17.249l8.209-66.53H113.4Z" transform="translate(63.813 299.783)" fill="#ffb6b6"/>
  <path id="Path_844" data-name="Path 844" d="M209.219,720.722l27.557-1.645v11.806l26.2,18.094a7.375,7.375,0,0,1-4.191,13.444H225.977l-5.655-11.678-2.208,11.678h-12.37Z" transform="translate(-37.63 166.54)" fill="#2f2e41"/>
  <path id="Path_845" data-name="Path 845" d="M175.405,599.291h17.249l8.209-66.53H175.405Z" transform="translate(98.7 299.783)" fill="#ffb6b6"/>
  <path id="Path_846" data-name="Path 846" d="M271.219,720.722l27.557-1.645v11.806l26.2,18.094a7.375,7.375,0,0,1-4.191,13.444H287.977l-5.655-11.678-2.208,11.678h-12.37Z" transform="translate(-2.743 166.54)" fill="#2f2e41"/>
  <path id="Path_847" data-name="Path 847" d="M208.449,846.719h.188l3.317-108.175a28.287,28.287,0,0,1,.371-26.73l.475-.859-1.231-5.708a36.359,36.359,0,0,1,2.078-21.882l3.095-100.907c-11.056-71.652,41.633-118.38,41.633-118.38l-9.628-40.5L344.07,414.2l-6.767,49.88,16.945,58.22c11.2,109.14,9.17,215.493-8.607,318.531l.485.245c1.745.6,2.493,3.02,1.672,5.4s-2.9,3.821-4.647,3.218l-41.684-1.45c-1.745-.6-2.494-3.02-1.672-5.4s2.9-3.82,4.647-3.218l2.834,1.434-6.044-104.385L301.9,717.6l-1.382-21.631-6.389-97.294L269.948,718.324l-24.7,129.6a4.544,4.544,0,0,1-3.064,7.913H208.449a4.558,4.558,0,1,1,0-9.117Z" transform="translate(-38.673 -5.016)" fill="#2f2e41"/>
  <path id="Path_848" data-name="Path 848" d="M1030.96,592.587H441.4a74.851,74.851,0,0,1-74.766-74.767V264.4a74.85,74.85,0,0,1,74.552-74.767c91.56-25.343,188.78-37.879,289-37.258,95.363.591,196.616,13.126,300.95,37.258a74.853,74.853,0,0,1,74.587,74.767V517.82a74.851,74.851,0,0,1-74.766,74.767ZM441.4,192.759A71.722,71.722,0,0,0,369.762,264.4V517.82A71.721,71.721,0,0,0,441.4,589.461H1030.96A71.722,71.722,0,0,0,1102.6,517.82V264.4a71.722,71.722,0,0,0-71.641-71.641l-.353-.04c-215.9-49.959-408.5-49.966-588.787-.016Z" transform="translate(52.903 -152.354)" fill="#e6e6e6" style="isolation: isolate"/>
  <path id="Path_849" data-name="Path 849" d="M408.464,489.211a1.769,1.769,0,0,1-1.769-1.769V220.3a1.769,1.769,0,1,1,3.538,0V487.442A1.769,1.769,0,0,1,408.464,489.211Z" transform="translate(75.444 -115.116)" fill="#e6e6e6" style="isolation: isolate"/>
  <path id="Path_850" data-name="Path 850" d="M507.464,489.211a1.769,1.769,0,0,1-1.769-1.769V220.3a1.769,1.769,0,1,1,3.538,0V487.442A1.769,1.769,0,0,1,507.464,489.211Z" transform="translate(131.151 -115.116)" fill="#e6e6e6" style="isolation: isolate"/>
  <path id="Path_851" data-name="Path 851" d="M606.464,489.211a1.769,1.769,0,0,1-1.769-1.769V220.3a1.769,1.769,0,0,1,3.538,0V487.442a1.769,1.769,0,0,1-1.77,1.769Z" transform="translate(186.858 -115.116)" fill="#e6e6e6" style="isolation: isolate"/>
  <path id="Path_852" data-name="Path 852" d="M705.464,489.211a1.769,1.769,0,0,1-1.769-1.769V220.3a1.769,1.769,0,1,1,3.538,0V487.442a1.769,1.769,0,0,1-1.769,1.769Z" transform="translate(242.565 -115.116)" fill="#e6e6e6" style="isolation: isolate"/>
  <path id="Path_853" data-name="Path 853" d="M399.009,245.776a1.769,1.769,0,0,1,1.769-1.769h634.375a1.769,1.769,0,1,1,0,3.538H400.778a1.769,1.769,0,0,1-1.769-1.769Z" transform="translate(71.119 -100.781)" fill="#e6e6e6" style="isolation: isolate"/>
  <path id="Path_854" data-name="Path 854" d="M399.009,371.776a1.769,1.769,0,0,1,1.769-1.769h634.375a1.769,1.769,0,1,1,0,3.538H400.778a1.769,1.769,0,0,1-1.769-1.769Z" transform="translate(71.119 -29.882)" fill="#e6e6e6" style="isolation: isolate"/>
  <path id="Path_855" data-name="Path 855" d="M399.009,308.776a1.769,1.769,0,0,1,1.769-1.769h634.375a1.769,1.769,0,1,1,0,3.538H400.778a1.769,1.769,0,0,1-1.769-1.769Z" transform="translate(71.119 -65.331)" fill="#e6e6e6" style="isolation: isolate"/>
  <path id="Path_856" data-name="Path 856" d="M801.306,489.211a1.769,1.769,0,0,0,1.769-1.77V220.3a1.769,1.769,0,0,0-3.538,0V487.442a1.769,1.769,0,0,0,1.769,1.769Z" transform="translate(296.495 -115.116)" fill="#e6e6e6" style="isolation: isolate"/>
  <path id="Path_857" data-name="Path 857" d="M489.992,330.438h-44.56a10.18,10.18,0,0,1-10.071-8.75,226.566,226.566,0,0,1,0-61.019,10.18,10.18,0,0,1,9.9-8.749c14.02-6.284,29.118-6.284,44.884,0a10.062,10.062,0,0,1,7.656,3.692,10.294,10.294,0,0,1,2.124,8.58,136.987,136.987,0,0,0,0,53.973,10.293,10.293,0,0,1-2.124,8.58A10.06,10.06,0,0,1,489.992,330.438Z" transform="translate(90.413 -98.981)" fill="#3271f9"/>
  <path id="Path_858" data-name="Path 858" d="M480.94,266.8h-37.5a2.344,2.344,0,1,1,0-4.688h37.5a2.344,2.344,0,1,1,0,4.688Z" transform="translate(94.799 -90.595)" fill="#fff"/>
  <path id="Path_859" data-name="Path 859" d="M480.94,278.8h-37.5a2.344,2.344,0,1,1,0-4.688h37.5a2.344,2.344,0,1,1,0,4.688Z" transform="translate(94.799 -83.843)" fill="#fff"/>
  <path id="Path_860" data-name="Path 860" d="M480.94,290.8h-37.5a2.344,2.344,0,1,1,0-4.688h37.5a2.344,2.344,0,1,1,0,4.688Z" transform="translate(94.799 -77.09)" fill="#fff"/>
  <path id="Path_861" data-name="Path 861" d="M694.992,396.438h-44.56a10.18,10.18,0,0,1-10.071-8.75,226.573,226.573,0,0,1,0-61.019,10.18,10.18,0,0,1,9.9-8.749c14.02-6.284,29.118-6.284,44.884,0a10.061,10.061,0,0,1,7.656,3.692,10.294,10.294,0,0,1,2.124,8.58,136.987,136.987,0,0,0,0,53.973,10.293,10.293,0,0,1-2.124,8.58A10.06,10.06,0,0,1,694.992,396.438Z" transform="translate(205.766 -61.843)" fill="#3271f9"/>
  <path id="Path_862" data-name="Path 862" d="M685.94,332.8h-37.5a2.344,2.344,0,0,1,0-4.688h37.5a2.344,2.344,0,1,1,0,4.688Z" transform="translate(210.152 -53.457)" fill="#fff"/>
  <path id="Path_863" data-name="Path 863" d="M685.94,344.8h-37.5a2.344,2.344,0,0,1,0-4.688h37.5a2.344,2.344,0,1,1,0,4.688Z" transform="translate(210.152 -46.705)" fill="#fff"/>
  <path id="Path_864" data-name="Path 864" d="M781.992,330.438h-44.56a10.18,10.18,0,0,1-10.071-8.75,226.569,226.569,0,0,1,0-61.019,10.18,10.18,0,0,1,9.9-8.749c14.02-6.284,29.118-6.284,44.884,0a10.062,10.062,0,0,1,7.656,3.692,10.294,10.294,0,0,1,2.124,8.58,136.987,136.987,0,0,0,0,53.973,10.294,10.294,0,0,1-2.124,8.58,10.06,10.06,0,0,1-7.81,3.693Z" transform="translate(254.721 -98.981)" fill="#fd6584"/>
  <path id="Path_865" data-name="Path 865" d="M772.94,278.8h-37.5a2.344,2.344,0,0,1,0-4.688h37.5a2.344,2.344,0,1,1,0,4.688Z" transform="translate(259.106 -83.843)" fill="#fff"/>
  <path id="Path_866" data-name="Path 866" d="M772.94,290.8h-37.5a2.344,2.344,0,0,1,0-4.688h37.5a2.344,2.344,0,1,1,0,4.688Z" transform="translate(259.106 -77.09)" fill="#fff"/>
  <path id="Path_867" data-name="Path 867" d="M313.86,305.131c-8.866-13.586-23.341-24.262-39.462-25.165s-35.5,12.826-43.452,26.953c-14.554,25.84-14.745,55.471,5.3,73.443,2.722-.923,14.046-2.247,16.813-3.138l1.755-3.169,2.165,1.927c24.773,2.472,32.4-14.371,72.037-24.991C326.7,334.926,322.726,318.717,313.86,305.131Z" transform="translate(-29.299 -80.571)" fill="#2f2e41"/>
  <circle id="Ellipse_95" data-name="Ellipse 95" cx="32.76" cy="32.76" r="32.76" transform="translate(217.772 223.031)" fill="#ffb7b7"/>
  <path id="Path_868" data-name="Path 868" d="M313.9,360.391l-18.747-11.248-37.493-3.749-33.139,16.875.332,51.55,21.023,53.466,81.9,16.881,9.555-46.988s24.37-32.733-1.875-51.479Z" transform="translate(-27.066 -43.731)" fill="#3271f9"/>
  <path id="Path_869" data-name="Path 869" d="M285.139,284.753a41.147,41.147,0,0,0-50.5,51.505c19.952,1.593,39.674-.27,55.221-14.387l1.383-12.109,5.673,10.133q8.582-2.414,17.191-4.859A42.013,42.013,0,0,0,285.139,284.753Z" transform="translate(-22.359 -78.714)" fill="#2f2e41"/>
  <path id="Path_870" data-name="Path 870" d="M235.858,551.969a14.31,14.31,0,0,1-3.173-21.713L220.6,400.48l31.028,2.4,2.126,126.813a14.388,14.388,0,0,1-17.892,22.28Z" transform="translate(-29.273 -12.734)" fill="#ffb6b6"/>
  <path id="Path_871" data-name="Path 871" d="M228.47,356.529s-7.48-1.094-6.614,14.9c.694,12.8-2.6,91.725,3.03,108.614a11.242,11.242,0,0,0-4.841,12.9l36.19-7.713c4.216-7.247,3.342-14.687.278-15.893l.18-23.159,8-76.339-30.8-12.617Z" transform="translate(-29.868 -37.474)" fill="#3271f9"/>
  <path id="Path_872" data-name="Path 872" d="M344.453,533.745a10.294,10.294,0,0,1-2.124-8.58,136.986,136.986,0,0,0,0-53.973,10.294,10.294,0,0,1,2.124-8.58,10.062,10.062,0,0,1,7.656-3.693c15.766-6.283,30.864-6.284,44.884,0a10.18,10.18,0,0,1,9.9,8.749,226.567,226.567,0,0,1,0,61.019,10.18,10.18,0,0,1-10.071,8.751h-44.56a10.06,10.06,0,0,1-7.81-3.693Z" transform="translate(39.109 17.498)" fill="#3271f9"/>
  <path id="Path_873" data-name="Path 873" d="M352.442,473.8h37.5a2.344,2.344,0,1,0,0-4.688h-37.5a2.344,2.344,0,1,0,0,4.688Z" transform="translate(43.597 25.883)" fill="#fff"/>
  <path id="Path_874" data-name="Path 874" d="M352.442,485.8h37.5a2.344,2.344,0,1,0,0-4.688h-37.5a2.344,2.344,0,0,0,0,4.688Z" transform="translate(43.597 32.636)" fill="#fff"/>
  <path id="Path_875" data-name="Path 875" d="M352.442,497.8h37.5a2.344,2.344,0,1,0,0-4.688h-37.5a2.344,2.344,0,0,0,0,4.688Z" transform="translate(43.597 39.388)" fill="#fff"/>
  <path id="Path_876" data-name="Path 876" d="M923.3,609.232h-19.22L894.941,535.1l28.366,0Z" transform="translate(503.581 301.097)" fill="#a0616a"/>
  <path id="Path_877" data-name="Path 877" d="M1036.708,758.875l-61.974,0v-.784a24.123,24.123,0,0,1,24.12-24.122h0l11.32-8.588,21.121,8.589h5.41Z" transform="translate(395.078 170.085)" fill="#2f2e41"/>
  <path id="Path_878" data-name="Path 878" d="M866.164,609.232h-19.22L837.8,535.1l28.366,0Z" transform="translate(471.428 301.097)" fill="#a0616a"/>
  <path id="Path_879" data-name="Path 879" d="M979.568,758.875l-61.974,0v-.784a24.123,24.123,0,0,1,24.12-24.122h0l11.32-8.588,21.121,8.589h5.41Z" transform="translate(362.926 170.085)" fill="#2f2e41"/>
  <path id="Path_880" data-name="Path 880" d="M960.873,278.806l-25.409,78.13-80.1-2.625,24.614-75.5Z" transform="translate(481.31 156.883)" fill="#2f2e41"/>
  <path id="Path_881" data-name="Path 881" d="M952.977,475.275l151.01,3.939-2.626,73.535s2.626,19.7-2.626,24.95-7.879,5.253-5.253,14.444-11.249,24.205-9.564,25.89,5.625,10.877,5.625,10.877l-13.131,74.848s-9.192,130-11.818,132.626-5.253,0-2.626,6.566,5.253,3.939,2.626,6.566a96.757,96.757,0,0,0-6.566,7.879H1026.28s-2.394-13.131-2.394-14.444-2.626-9.192-2.626-10.505,2.321-3.634,2.321-3.634a43.232,43.232,0,0,0,1.618-8.184c0-2.626,7.879-103.737,7.879-103.737l-15.757-131.313L979.24,714.265s0,112.929-2.626,115.556-2.626,1.313-1.313,6.566,6.566,3.939,2.626,7.879-5.253-2.626-3.939,3.939l1.313,6.566-39.394.564s-5.253-11.069-2.626-15.008,2.469-2.864-.735-9.311-4.517-7.76-3.2-9.073,1.313-8.3,1.313-8.3L937.22,688s1.313-132.626,1.313-136.566a13.1,13.1,0,0,0-1.091-5.907v-5.347l5.03-18.947Z" transform="translate(369.252 29.353)" fill="#2f2e41"/>
  <path id="Path_882" data-name="Path 882" d="M964.219,359.158l45.96-17.071,76.162,5.253,17.635,8.23a30.514,30.514,0,0,1,17.007,33.691L1098.159,502.29l5.9,54.383s-95.851,72.335-170.7,50.011c0,0,1.313-21.01,2.626-28.889s3.939-7.879,5.252-11.818,3.939,0,1.313-7.879,21.01-63.03,21.01-63.03Z" transform="translate(371.798 -45.591)" fill="#e6e6e6"/>
  <path id="Path_883" data-name="Path 883" d="M912.372,223.178l37.466-22.637L937.555,178.39h-39.8l-15.768,19.1Z" transform="translate(496.291 100.38)" fill="#e6e6e6"/>
  <path id="Path_884" data-name="Path 884" d="M1012.881,497.589a14.664,14.664,0,0,0,15.4-16.379l46.855-22.8-23.3-13.8-40.922,23.77a14.743,14.743,0,0,0,1.96,29.215Z" transform="translate(408.672 12.095)" fill="#a0616a"/>
  <path id="Path_885" data-name="Path 885" d="M1022.563,540.463,1014.4,510.53l44.486-58.936c-14.4-17.361-19.453-43-15.9-80.584a16.31,16.31,0,0,1,31.438-8.4c10.066,29.36,27.579,92.543,25.3,95.965-2.627,3.941-3.529,5.69.6,9.454,4.9,4.463,2.3,23.484.065,26.213C1098.353,496.724,1022.563,540.463,1022.563,540.463Z" transform="translate(417.397 -40.245)" fill="#e6e6e6"/>
  <path id="Path_886" data-name="Path 886" d="M872.337,462.614a14.663,14.663,0,0,0,19.686-10.863l51.591-7.328-17.938-20.285-46.242,10.069a14.743,14.743,0,0,0-7.1,28.407Z" transform="translate(332.108 0.578)" fill="#a0616a"/>
  <path id="Path_887" data-name="Path 887" d="M883.078,499.215l7.833-30.022,64.858-36.541c4.688-29.691,7.626-39.372,29.432-70.194a16.31,16.31,0,0,1,31.446,8.373c-5.9,30.472-32.578,112.137-35.875,113.39C977.767,485.363,883.078,499.215,883.078,499.215Z" transform="translate(343.504 -40.336)" fill="#e6e6e6"/>
  <circle id="Ellipse_96" data-name="Ellipse 96" cx="40.707" cy="40.707" r="40.707" transform="translate(1372.784 183.567)" fill="#a0616a"/>
  <path id="Path_888" data-name="Path 888" d="M975.234,286.673c1.082-9.736,15.144-19.471,40.024-25.962s37.861,21.635,37.861,21.635c17.308,8.654,7.031,54.628,1.623,50.3-.054-.043-.108-.085-.162-.126a32.226,32.226,0,0,1-12.872-21.987l-1.245-11.2c-5.7,4.366-12.12,8.063-19.013,6.964l8.436-8.307L1005.9,308.424l7.941-10.927-.376-.369a39.232,39.232,0,0,1-12.585,7.126c-5.247,1.5-11.534.69-15.128-3.417a11.158,11.158,0,0,1-2.15-3.87c-6.528,4.471-7.826,14.045-7.826,14.045S974.152,296.408,975.234,286.673Z" transform="translate(395.15 -91.929)" fill="#2f2e41"/>
  <path id="Path_889" data-name="Path 889" d="M890.992,495.647h-44.56a10.18,10.18,0,0,1-10.071-8.75,226.56,226.56,0,0,1,0-61.019,10.18,10.18,0,0,1,9.9-8.749c14.02-6.284,29.118-6.284,44.884,0a10.062,10.062,0,0,1,7.656,3.692,10.294,10.294,0,0,1,2.124,8.58,136.985,136.985,0,0,0,0,53.973,10.293,10.293,0,0,1-2.124,8.58,10.06,10.06,0,0,1-7.81,3.693Z" transform="translate(316.055 -6.018)" fill="#3f3d56"/>
  <path id="Path_890" data-name="Path 890" d="M881.94,432.006h-37.5a2.344,2.344,0,0,1,0-4.688h37.5a2.344,2.344,0,1,1,0,4.688Z" transform="translate(320.44 2.367)" fill="#fff"/>
  <path id="Path_891" data-name="Path 891" d="M881.94,444.006h-37.5a2.344,2.344,0,0,1,0-4.688h37.5a2.344,2.344,0,1,1,0,4.688Z" transform="translate(320.44 9.12)" fill="#fff"/>
  <path id="Path_892" data-name="Path 892" d="M881.94,456.006h-37.5a2.344,2.344,0,0,1,0-4.688h37.5a2.344,2.344,0,1,1,0,4.688Z" transform="translate(320.44 15.872)" fill="#fff"/>
  <circle id="Ellipse_97" data-name="Ellipse 97" cx="29.691" cy="29.691" r="29.691" transform="translate(986.733 54.448)" fill="#e6e6e6"/>
  <path id="Path_893" data-name="Path 893" d="M768.465,198.517a2.4,2.4,0,0,0-3.315,0,98.351,98.351,0,0,0-16.849,17.21l-3.6-6.968c-1.386-2.681-5.432-.313-4.048,2.366l5.267,10.192a2.372,2.372,0,0,0,4.048,0,94.93,94.93,0,0,1,18.5-19.485,2.358,2.358,0,0,0,0-3.315Z" transform="translate(263.201 -126.752)" fill="#fff"/>
  <circle id="Ellipse_98" data-name="Ellipse 98" cx="29.691" cy="29.691" r="29.691" transform="translate(841.402 54.448)" fill="#e6e6e6"/>
  <path id="Path_894" data-name="Path 894" d="M675.465,198.517a2.4,2.4,0,0,0-3.315,0,98.349,98.349,0,0,0-16.849,17.21l-3.6-6.968c-1.386-2.681-5.433-.313-4.048,2.366l5.268,10.192a2.372,2.372,0,0,0,4.048,0,94.923,94.923,0,0,1,18.5-19.485,2.358,2.358,0,0,0,0-3.315Z" transform="translate(210.87 -126.752)" fill="#fff"/>
  <circle id="Ellipse_99" data-name="Ellipse 99" cx="29.691" cy="29.691" r="29.691" transform="translate(535.114 51.322)" fill="#e6e6e6"/>
  <path id="Path_895" data-name="Path 895" d="M479.465,196.517a2.4,2.4,0,0,0-3.315,0,98.347,98.347,0,0,0-16.849,17.21l-3.6-6.968c-1.386-2.681-5.432-.313-4.048,2.366l5.268,10.192a2.372,2.372,0,0,0,4.048,0,94.932,94.932,0,0,1,18.5-19.485,2.358,2.358,0,0,0,0-3.315Z" transform="translate(100.581 -127.877)" fill="#fff"/>
  <circle id="Ellipse_100" data-name="Ellipse 100" cx="20.315" cy="20.315" r="20.315" transform="translate(189.758 191.965)" fill="#2f2e41"/>
  <path id="Path_896" data-name="Path 896" d="M539.893,747.126a1.854,1.854,0,0,1-1.86,1.859H100.025a1.86,1.86,0,0,1,0-3.719H538.033a1.854,1.854,0,0,1,1.86,1.86Z" transform="translate(-98.165 181.276)" fill="#ccc"/>
  <path id="Path_897" data-name="Path 897" d="M1260.893,747.126a1.854,1.854,0,0,1-1.86,1.859H821.025a1.86,1.86,0,0,1,0-3.719h438.009a1.854,1.854,0,0,1,1.859,1.86Z" transform="translate(307.54 181.276)" fill="#ccc"/>
  <path id="Path_898" data-name="Path 898" d="M236.648,275.263c-3.516-.978-7.174.66-10.456,2.257L214.518,283.2l24.247,2.128.893-1.681C242.455,281.3,240.164,276.241,236.648,275.263Z" transform="translate(-32.694 -83.359)" fill="#2f2e41"/>
</svg>
